<svg width="20" height="22" viewBox="0 0 20 22" fill="none" xmlns="http://www.w3.org/2000/svg">
<path d="M4 15C5.415 15 6.122 15 6.56 15.44C7 15.879 7 16.585 7 18C7 19.415 7 20.122 6.56 20.56C6.121 21 5.415 21 4 21C2.585 21 1.878 21 1.44 20.56C1 20.121 1 19.414 1 18C1 16.585 1 15.878 1.44 15.44C1.879 15 2.585 15 4 15ZM4 15V7M4 7C2.585 7 1.878 7 1.44 6.56C1 6.121 1 5.414 1 4C1 2.585 1 1.878 1.44 1.44C1.879 1 2.585 1 4 1C5.415 1 6.122 1 6.56 1.44C7 1.879 7 2.585 7 4C7 5.415 7 6.122 6.56 6.56C6.121 7 5.415 7 4 7ZM4 7C4 8.5913 4.63214 10.1174 5.75736 11.2426C6.88258 12.3679 8.4087 13 10 13H13M13 13C13 14.414 13 15.121 13.44 15.56C13.879 16 14.586 16 16 16C17.414 16 18.121 16 18.56 15.56C19 15.121 19 14.414 19 13C19 11.586 19 10.879 18.56 10.44C18.122 10 17.415 10 16 10C14.585 10 13.879 10 13.44 10.44C13 10.878 13 11.585 13 13Z" stroke="#2368C4" stroke-width="1.5" stroke-linecap="round" stroke-linejoin="round"/>
</svg>
