<svg width="20" height="21" viewBox="0 0 20 21" fill="none" xmlns="http://www.w3.org/2000/svg">
<path d="M4.61538 3.62087H3.07692V10.8622H4.61538V3.62087ZM19.6185 5.16761L10.3877 0.0986964C10.27 0.0340597 10.1362 0 10 0C9.86377 0 9.72997 0.0340597 9.61231 0.0986964L6.53539 1.78882C6.41936 1.85255 6.32309 1.94378 6.25615 2.05342C6.18921 2.16306 6.15394 2.28728 6.15385 2.41374V8.68978H7.69231V2.83012L10 1.56289L18.4615 6.20891V8.68978H20V5.79326C20 5.66668 19.9648 5.5423 19.8979 5.43252C19.8309 5.32275 19.7346 5.23141 19.6185 5.16761ZM1.53769 15.5198V5.79326H3.37813e-08V15.9354C-3.98107e-05 16.062 0.035168 16.1864 0.102113 16.2962C0.169058 16.4059 0.265402 16.4973 0.381539 16.5611L8.45615 21L9.23077 19.7487L1.53769 15.5198ZM14.6154 18.8276H16.1538V11.5863H14.6154V18.8276ZM18.4615 18.8276H20V14.4828H18.4615V18.8276ZM10.7692 18.8276H12.3077V13.0346H10.7692V18.8276Z" fill="white" fill-opacity="0.9"/>
</svg>
