<svg width="21" height="21" viewBox="0 0 21 21" fill="none" xmlns="http://www.w3.org/2000/svg">
<path d="M15.4251 7.64806L18.6071 10.8301C19.1234 11.3395 19.5339 11.9461 19.8148 12.6148C20.0958 13.2836 20.2417 14.0013 20.2441 14.7267C20.2465 15.4521 20.1054 16.1707 19.829 16.8414C19.5525 17.512 19.1461 18.1213 18.6332 18.6342C18.1203 19.1471 17.511 19.5535 16.8404 19.83C16.1697 20.1064 15.4511 20.2475 14.7257 20.2451C14.0003 20.2427 13.2826 20.0968 12.6138 19.8158C11.9451 19.5349 11.3385 19.1244 10.8291 18.6081L9.76906 17.5481C9.62573 17.4098 9.51138 17.2443 9.43268 17.0613C9.35398 16.8784 9.31251 16.6815 9.31069 16.4824C9.30886 16.2832 9.34672 16.0857 9.42206 15.9013C9.49739 15.7169 9.60869 15.5494 9.74946 15.4085C9.89024 15.2676 10.0577 15.1561 10.242 15.0806C10.4263 15.0051 10.6238 14.9671 10.8229 14.9687C11.0221 14.9703 11.219 15.0116 11.402 15.0901C11.585 15.1687 11.7506 15.2829 11.8891 15.4261L12.9511 16.4871C13.4207 16.9524 14.0555 17.2129 14.7166 17.2113C15.3778 17.2098 16.0114 16.9464 16.4788 16.4788C16.9463 16.0113 17.2095 15.3776 17.2108 14.7164C17.2122 14.0553 16.9516 13.4205 16.4861 12.9511L13.3041 9.76906C12.9601 9.42498 12.5233 9.18873 12.0471 9.08926C11.5709 8.98978 11.076 9.03142 10.6231 9.20906C10.4617 9.27306 10.3104 9.33839 10.1691 9.40506L9.70506 9.62206C9.08506 9.90206 8.60806 10.0221 8.00106 9.41606C7.12906 8.54406 7.35506 7.73906 8.41806 7.00606C9.47697 6.27742 10.7576 5.94267 12.0377 6.05995C13.3177 6.17723 14.5162 6.73912 15.4251 7.64806ZM9.41506 1.63806L10.4751 2.69806C10.7484 2.98083 10.8998 3.35966 10.8966 3.75296C10.8933 4.14626 10.7358 4.52256 10.4578 4.8008C10.1798 5.07905 9.80366 5.23698 9.41036 5.24058C9.01707 5.24418 8.63809 5.09316 8.35506 4.82006L7.29406 3.76006C7.06351 3.52122 6.7877 3.33069 6.48273 3.19958C6.17775 3.06847 5.84972 2.99941 5.51778 2.99643C5.18583 2.99345 4.85661 3.05662 4.54934 3.18223C4.24206 3.30785 3.96288 3.4934 3.72808 3.72807C3.49329 3.96273 3.30757 4.24181 3.18178 4.54901C3.056 4.85622 2.99265 5.1854 2.99544 5.51735C2.99823 5.84929 3.0671 6.17736 3.19804 6.48241C3.32897 6.78746 3.51935 7.06337 3.75806 7.29406L6.94006 10.4761C7.28399 10.8201 7.72083 11.0564 8.19705 11.1559C8.67326 11.2553 9.16815 11.2137 9.62106 11.0361C9.78239 10.9721 9.93372 10.9067 10.0751 10.8401L10.5391 10.6231C11.1591 10.3431 11.6371 10.2231 12.2431 10.8291C13.1151 11.7011 12.8891 12.5061 11.8261 13.2391C10.7671 13.9677 9.48648 14.3024 8.20646 14.1852C6.92644 14.0679 5.72793 13.506 4.81906 12.5971L1.63706 9.41506C1.12072 8.90559 0.710255 8.29902 0.429303 7.63027C0.148352 6.96151 0.00246094 6.24379 3.08668e-05 5.51843C-0.00239921 4.79306 0.13868 4.07438 0.415144 3.40376C0.691609 2.73314 1.098 2.12383 1.61091 1.61091C2.12383 1.098 2.73314 0.691609 3.40376 0.415144C4.07438 0.13868 4.79306 -0.00239921 5.51843 3.08668e-05C6.24379 0.00246094 6.96151 0.148352 7.63027 0.429304C8.29902 0.710255 8.90559 1.12172 9.41506 1.63806Z" fill="#2368C4"/>
</svg>
