<svg width="55" height="59" viewBox="0 0 55 59" fill="none" xmlns="http://www.w3.org/2000/svg">
<path d="M39.5194 23.566C40.5493 23.5662 41.5582 23.8581 42.4307 24.4082C43.3031 24.9582 44.0038 25.7443 44.4525 26.6762C44.9011 27.6082 45.0796 28.6484 44.9674 29.6776C44.8552 30.7068 44.4569 31.6834 43.8181 32.4955C43.1793 33.3076 42.3259 33.9225 41.3556 34.2695C40.3854 34.6165 39.3375 34.6818 38.332 34.4578C37.3266 34.2337 36.4043 33.7295 35.6707 33.0028C34.9371 32.2761 34.422 31.3564 34.1843 30.349H29.1242C28.9965 31.1715 28.6853 31.9543 28.2138 32.6386C27.7423 33.3229 27.1228 33.8911 26.4018 34.3004C25.6808 34.7098 24.877 34.9497 24.0506 35.0022C23.2242 35.0547 22.3967 34.9184 21.6302 34.6036L19.0073 39.2686C20.0361 40.1372 20.7117 41.3554 20.906 42.6919C21.1003 44.0284 20.7996 45.39 20.0611 46.5183C19.3226 47.6466 18.1977 48.463 16.9 48.8124C15.6022 49.1618 14.2221 49.0199 13.0215 48.4138C11.821 47.8076 10.8836 46.7792 10.3875 45.5241C9.89136 44.2689 9.87098 42.8742 10.3302 41.6049C10.7894 40.3356 11.6963 39.2801 12.8786 38.6387C14.061 37.9973 15.4364 37.8147 16.7438 38.1257L19.5639 33.1113C18.6987 32.1099 18.223 30.8276 18.2247 29.5011C18.2247 27.963 18.8505 26.5725 19.8608 25.5737L17.157 20.7612C16.3348 21.025 15.4624 21.0901 14.6105 20.9512C13.7586 20.8123 12.9513 20.4733 12.2542 19.9618C11.5571 19.4503 10.9898 18.7807 10.5985 18.0074C10.2071 17.234 10.0028 16.3788 10.002 15.5112C10.002 14.6026 10.2254 13.7082 10.6524 12.9074C11.0793 12.1066 11.6966 11.4244 12.4492 10.9215C13.2018 10.4185 14.0664 10.1104 14.9661 10.0246C15.8657 9.93883 16.7726 10.078 17.6058 10.4297C18.4391 10.7814 19.1729 11.3347 19.742 12.0405C20.3111 12.7462 20.6979 13.5825 20.8678 14.4748C21.0377 15.3672 20.9856 16.2879 20.716 17.1551C20.4465 18.0223 19.9678 18.809 19.3227 19.4453L22.0265 24.2544C23.4095 23.8065 24.9128 23.929 26.206 24.5948C27.4993 25.2606 28.4767 26.4154 28.9235 27.8053H34.1843C34.4691 26.5981 35.1508 25.5228 36.119 24.7534C37.0872 23.9841 38.2853 23.5657 39.5194 23.566ZM23.7065 26.5335C23.313 26.5239 22.9217 26.5936 22.5554 26.7383C22.1891 26.883 21.8553 27.1 21.5736 27.3763C21.2919 27.6526 21.0681 27.9828 20.9152 28.3474C20.7623 28.712 20.6835 29.1037 20.6834 29.4994C20.6832 29.895 20.7618 30.2867 20.9145 30.6514C21.0672 31.0161 21.2909 31.3464 21.5724 31.6229C21.8539 31.8994 22.1876 32.1165 22.5538 32.2615C22.92 32.4064 23.3114 32.4763 23.7048 32.4669C24.4752 32.4486 25.208 32.1282 25.7465 31.574C26.285 31.0198 26.5866 30.2758 26.5868 29.5011C26.5871 28.7263 26.2859 27.9822 25.7477 27.4277C25.2095 26.8732 24.4769 26.5523 23.7065 26.5335ZM15.4838 12.5436C14.7009 12.5436 13.9501 12.8562 13.3966 13.4128C12.843 13.9693 12.532 14.7241 12.532 15.5112C12.532 16.2982 12.843 17.053 13.3966 17.6095C13.9501 18.1661 14.7009 18.4787 15.4838 18.4787C16.2666 18.4787 17.0174 18.1661 17.571 17.6095C18.1245 17.053 18.4355 16.2982 18.4355 15.5112C18.4355 14.7241 18.1245 13.9693 17.571 13.4128C17.0174 12.8562 16.2666 12.5436 15.4838 12.5436ZM36.5677 29.0771C36.5677 29.8642 36.8787 30.619 37.4322 31.1755C37.9858 31.732 38.7366 32.0447 39.5194 32.0447C40.3023 32.0447 41.053 31.732 41.6066 31.1755C42.1602 30.619 42.4711 29.8642 42.4711 29.0771C42.4711 28.2901 42.1602 27.5353 41.6066 26.9788C41.053 26.4222 40.3023 26.1096 39.5194 26.1096C38.7366 26.1096 37.9858 26.4222 37.4322 26.9788C36.8787 27.5353 36.5677 28.2901 36.5677 29.0771ZM12.532 43.491C12.5323 44.2783 12.8436 45.0332 13.3974 45.5897C13.9513 46.1463 14.7024 46.4588 15.4855 46.4586C16.2685 46.4583 17.0195 46.1454 17.573 45.5885C18.1266 45.0317 18.4374 44.2766 18.4372 43.4893C18.4371 43.0995 18.3606 42.7135 18.2121 42.3534C18.0637 41.9933 17.8461 41.6661 17.5718 41.3906C17.2976 41.115 16.972 40.8964 16.6138 40.7474C16.2555 40.5983 15.8715 40.5216 15.4838 40.5217C15.096 40.5219 14.7121 40.5987 14.3539 40.748C13.9958 40.8973 13.6703 41.1161 13.3962 41.3918C13.1221 41.6675 12.9048 41.9948 12.7565 42.355C12.6082 42.7152 12.5319 43.1012 12.532 43.491Z" fill="white" fill-opacity="0.9"/>
</svg>
