<svg width="132" height="43" viewBox="0 0 132 43" fill="none" xmlns="http://www.w3.org/2000/svg">
<path d="M27.5012 18C28.1117 18.0001 28.7099 18.1722 29.2272 18.4966C29.7444 18.821 30.1599 19.2846 30.4258 19.8342C30.6918 20.3837 30.7976 20.9971 30.7311 21.6041C30.6646 22.211 30.4284 22.7869 30.0497 23.2658C29.671 23.7448 29.1651 24.1073 28.5898 24.312C28.0146 24.5166 27.3933 24.5551 26.7972 24.423C26.2011 24.2909 25.6543 23.9935 25.2194 23.565C24.7845 23.1364 24.4791 22.5941 24.3382 22H21.3382C21.2625 22.485 21.0779 22.9466 20.7984 23.3502C20.5189 23.7538 20.1516 24.0888 19.7241 24.3302C19.2967 24.5716 18.8201 24.7131 18.3302 24.7441C17.8402 24.775 17.3496 24.6946 16.8952 24.509L15.3402 27.26C15.9501 27.7722 16.3507 28.4906 16.4658 29.2788C16.581 30.0669 16.4028 30.8699 15.9649 31.5352C15.5271 32.2006 14.8602 32.682 14.0908 32.8881C13.3214 33.0941 12.5031 33.0105 11.7914 32.653C11.0796 32.2955 10.5239 31.6891 10.2297 30.9489C9.93559 30.2087 9.92351 29.3863 10.1958 28.6378C10.468 27.8892 11.0057 27.2668 11.7067 26.8885C12.4076 26.5103 13.2231 26.4026 13.9982 26.586L15.6702 23.629C15.1572 23.0384 14.8752 22.2822 14.8762 21.5C14.8762 20.593 15.2472 19.773 15.8462 19.184L14.2432 16.346C13.7557 16.5015 13.2385 16.5399 12.7334 16.458C12.2283 16.3761 11.7497 16.1762 11.3364 15.8746C10.9231 15.5729 10.5868 15.1781 10.3548 14.722C10.1228 14.266 10.0016 13.7616 10.0012 13.25C10.0012 12.7142 10.1336 12.1867 10.3868 11.7145C10.6399 11.2423 11.0059 10.84 11.452 10.5434C11.8982 10.2468 12.4108 10.0651 12.9442 10.0145C13.4776 9.96393 14.0152 10.046 14.5093 10.2534C15.0033 10.4608 15.4383 10.7871 15.7757 11.2033C16.1132 11.6195 16.3424 12.1126 16.4432 12.6389C16.5439 13.1651 16.513 13.708 16.3532 14.2194C16.1934 14.7308 15.9096 15.1948 15.5272 15.57L17.1302 18.406C17.9501 18.1419 18.8413 18.2141 19.6081 18.6067C20.3748 18.9993 20.9543 19.6803 21.2192 20.5H24.3382C24.507 19.7881 24.9112 19.1539 25.4852 18.7003C26.0592 18.2466 26.7695 17.9998 27.5012 18ZM18.1262 19.75C17.8929 19.7443 17.6609 19.7854 17.4437 19.8708C17.2265 19.9561 17.0286 20.084 16.8616 20.247C16.6946 20.4099 16.5619 20.6047 16.4713 20.8197C16.3806 21.0347 16.3339 21.2656 16.3338 21.499C16.3338 21.7323 16.3804 21.9633 16.4709 22.1784C16.5614 22.3934 16.694 22.5882 16.8609 22.7513C17.0278 22.9143 17.2257 23.0423 17.4428 23.1278C17.6599 23.2133 17.8919 23.2545 18.1252 23.249C18.5819 23.2382 19.0164 23.0492 19.3356 22.7224C19.6549 22.3956 19.8337 21.9569 19.8338 21.5C19.834 21.0431 19.6554 20.6043 19.3363 20.2773C19.0172 19.9503 18.5829 19.761 18.1262 19.75ZM13.2512 11.5C12.787 11.5 12.3419 11.6844 12.0137 12.0125C11.6855 12.3407 11.5012 12.7859 11.5012 13.25C11.5012 13.7141 11.6855 14.1592 12.0137 14.4874C12.3419 14.8156 12.787 15 13.2512 15C13.7153 15 14.1604 14.8156 14.4886 14.4874C14.8168 14.1592 15.0012 13.7141 15.0012 13.25C15.0012 12.7859 14.8168 12.3407 14.4886 12.0125C14.1604 11.6844 13.7153 11.5 13.2512 11.5ZM25.7512 21.25C25.7512 21.7141 25.9355 22.1592 26.2637 22.4874C26.5919 22.8156 27.037 23 27.5012 23C27.9653 23 28.4104 22.8156 28.7386 22.4874C29.0668 22.1592 29.2512 21.7141 29.2512 21.25C29.2512 20.7859 29.0668 20.3407 28.7386 20.0125C28.4104 19.6844 27.9653 19.5 27.5012 19.5C27.037 19.5 26.5919 19.6844 26.2637 20.0125C25.9355 20.3407 25.7512 20.7859 25.7512 21.25ZM11.5012 29.75C11.5013 30.2142 11.6859 30.6594 12.0142 30.9876C12.3426 31.3158 12.7879 31.5001 13.2522 31.5C13.7164 31.4999 14.1616 31.3153 14.4898 30.9869C14.818 30.6585 15.0023 30.2132 15.0022 29.749C15.0021 29.5191 14.9568 29.2915 14.8687 29.0791C14.7807 28.8668 14.6517 28.6738 14.4891 28.5113C14.3265 28.3488 14.1335 28.22 13.9211 28.132C13.7087 28.0441 13.4811 27.9989 13.2512 27.999C13.0213 27.9991 12.7937 28.0444 12.5813 28.1324C12.369 28.2205 12.176 28.3495 12.0135 28.512C11.851 28.6746 11.7221 28.8677 11.6342 29.0801C11.5463 29.2925 11.5011 29.5201 11.5012 29.75Z" fill="#2368C4"/>
<path d="M51.4741 30.7686C49.2684 30.7686 47.4709 30.0524 46.0815 28.6201C44.6922 27.1807 43.9976 25.3079 43.9976 23.002C43.9976 20.5671 44.703 18.5977 46.1138 17.0938C47.5246 15.5898 49.3937 14.8379 51.7212 14.8379C53.9198 14.8379 55.6958 15.5576 57.0493 16.9971C58.41 18.4365 59.0903 20.3343 59.0903 22.6904C59.0903 25.111 58.3849 27.0625 56.9741 28.5449C55.5705 30.0273 53.7371 30.7686 51.4741 30.7686ZM51.6245 17.8242C50.4071 17.8242 49.4403 18.2826 48.7241 19.1992C48.008 20.1087 47.6499 21.3154 47.6499 22.8193C47.6499 24.3447 48.008 25.5514 48.7241 26.4395C49.4403 27.3275 50.3784 27.7715 51.5386 27.7715C52.7345 27.7715 53.6834 27.3418 54.3853 26.4824C55.0871 25.6159 55.438 24.4163 55.438 22.8838C55.438 21.2868 55.0978 20.0443 54.4175 19.1562C53.7371 18.2682 52.8062 17.8242 51.6245 17.8242ZM71.7983 19.5L67.7056 30.5H63.8384L59.939 19.5H63.5698L65.4819 26.2783C65.6968 27.0446 65.8221 27.6963 65.8579 28.2334H65.9009C65.951 27.7249 66.0835 27.0947 66.2983 26.3428L68.2534 19.5H71.7983ZM82.9165 25.9668H75.7407C75.8553 27.5638 76.8615 28.3623 78.7593 28.3623C79.9696 28.3623 81.033 28.0758 81.9497 27.5029V29.9521C80.9328 30.4964 79.6115 30.7686 77.9858 30.7686C76.2098 30.7686 74.8312 30.278 73.8501 29.2969C72.869 28.3086 72.3784 26.9336 72.3784 25.1719C72.3784 23.3457 72.9084 21.8991 73.9683 20.832C75.0282 19.765 76.3315 19.2314 77.8784 19.2314C79.4826 19.2314 80.7215 19.7077 81.5952 20.6602C82.4761 21.6126 82.9165 22.9053 82.9165 24.5381V25.9668ZM79.769 23.8828C79.769 22.3073 79.1317 21.5195 77.8569 21.5195C77.3127 21.5195 76.84 21.7451 76.439 22.1963C76.0451 22.6475 75.8052 23.2096 75.7192 23.8828H79.769ZM92.1118 22.5615C91.7036 22.3395 91.2274 22.2285 90.6831 22.2285C89.9455 22.2285 89.369 22.5007 88.9536 23.0449C88.5382 23.582 88.3306 24.3161 88.3306 25.2471V30.5H84.936V19.5H88.3306V21.541H88.3735C88.9106 20.0514 89.8774 19.3066 91.2739 19.3066C91.632 19.3066 91.9113 19.3496 92.1118 19.4355V22.5615ZM100.544 30.7686C98.3387 30.7686 96.5412 30.0524 95.1519 28.6201C93.7625 27.1807 93.0679 25.3079 93.0679 23.002C93.0679 20.5671 93.7733 18.5977 95.1841 17.0938C96.5949 15.5898 98.464 14.8379 100.792 14.8379C102.99 14.8379 104.766 15.5576 106.12 16.9971C107.48 18.4365 108.161 20.3343 108.161 22.6904C108.161 25.111 107.455 27.0625 106.044 28.5449C104.641 30.0273 102.807 30.7686 100.544 30.7686ZM100.695 17.8242C99.4774 17.8242 98.5106 18.2826 97.7944 19.1992C97.0783 20.1087 96.7202 21.3154 96.7202 22.8193C96.7202 24.3447 97.0783 25.5514 97.7944 26.4395C98.5106 27.3275 99.4487 27.7715 100.609 27.7715C101.805 27.7715 102.754 27.3418 103.456 26.4824C104.157 25.6159 104.508 24.4163 104.508 22.8838C104.508 21.2868 104.168 20.0443 103.488 19.1562C102.807 18.2682 101.876 17.8242 100.695 17.8242ZM110.019 29.9092V26.4717C110.642 26.9945 111.319 27.3883 112.049 27.6533C112.78 27.9111 113.517 28.04 114.262 28.04C114.699 28.04 115.079 28.0007 115.401 27.9219C115.73 27.8431 116.002 27.7357 116.217 27.5996C116.439 27.4564 116.604 27.2917 116.711 27.1055C116.819 26.9121 116.873 26.7044 116.873 26.4824C116.873 26.1816 116.787 25.9131 116.615 25.6768C116.443 25.4404 116.207 25.222 115.906 25.0215C115.612 24.821 115.261 24.6276 114.853 24.4414C114.445 24.2552 114.004 24.0654 113.532 23.8721C112.329 23.3708 111.43 22.7585 110.835 22.0352C110.248 21.3118 109.955 20.4382 109.955 19.4141C109.955 18.612 110.116 17.9245 110.438 17.3516C110.76 16.7715 111.197 16.2952 111.749 15.9229C112.307 15.5505 112.952 15.2783 113.682 15.1064C114.413 14.9274 115.186 14.8379 116.002 14.8379C116.805 14.8379 117.514 14.888 118.129 14.9883C118.752 15.0814 119.325 15.2282 119.848 15.4287V18.6406C119.59 18.4616 119.307 18.304 119 18.168C118.699 18.0319 118.387 17.9209 118.065 17.835C117.743 17.7419 117.42 17.6738 117.098 17.6309C116.783 17.5879 116.482 17.5664 116.196 17.5664C115.802 17.5664 115.444 17.6058 115.122 17.6846C114.799 17.7562 114.527 17.86 114.305 17.9961C114.083 18.1322 113.911 18.2969 113.79 18.4902C113.668 18.6764 113.607 18.8877 113.607 19.124C113.607 19.3818 113.675 19.6146 113.811 19.8223C113.947 20.0228 114.14 20.2161 114.391 20.4023C114.642 20.5814 114.946 20.7604 115.304 20.9395C115.662 21.1113 116.067 21.2904 116.518 21.4766C117.134 21.7344 117.685 22.0101 118.172 22.3037C118.667 22.5902 119.089 22.916 119.44 23.2812C119.791 23.6465 120.059 24.0654 120.246 24.5381C120.432 25.0036 120.525 25.5479 120.525 26.1709C120.525 27.0303 120.36 27.7536 120.031 28.3408C119.708 28.9209 119.268 29.3936 118.709 29.7588C118.151 30.1169 117.499 30.3747 116.754 30.5322C116.017 30.6898 115.236 30.7686 114.413 30.7686C113.568 30.7686 112.762 30.6969 111.996 30.5537C111.236 30.4105 110.578 30.1956 110.019 29.9092Z" fill="#2368C4"/>
</svg>
