<svg width="175" height="64" viewBox="0 0 175 64" fill="none" xmlns="http://www.w3.org/2000/svg">
<path d="M73.5244 35.7578C71.3402 35.7578 69.5892 35.0381 68.2715 33.5986C66.9609 32.1592 66.3057 30.2865 66.3057 27.9805C66.3057 25.5026 66.9753 23.526 68.3145 22.0508C69.6536 20.5755 71.4762 19.8379 73.7822 19.8379C75.9092 19.8379 77.6208 20.554 78.917 21.9863C80.2204 23.4186 80.8721 25.2913 80.8721 27.6045C80.8721 30.1182 80.2061 32.1055 78.874 33.5664C77.542 35.0273 75.7588 35.7578 73.5244 35.7578ZM73.6533 21.4707C72.0348 21.4707 70.7207 22.0544 69.7109 23.2217C68.7012 24.389 68.1963 25.9215 68.1963 27.8193C68.1963 29.7171 68.6868 31.2461 69.668 32.4062C70.6562 33.5592 71.9417 34.1357 73.5244 34.1357C75.2145 34.1357 76.5465 33.5843 77.5205 32.4814C78.4945 31.3786 78.9814 29.8353 78.9814 27.8516C78.9814 25.8177 78.5088 24.2458 77.5635 23.1357C76.6182 22.0257 75.3148 21.4707 73.6533 21.4707ZM92.3125 24.5L87.9297 35.5H86.2002L82.0322 24.5H83.9658L86.7588 32.4922C86.9665 33.0794 87.0954 33.5915 87.1455 34.0283H87.1885C87.2601 33.4769 87.3747 32.9792 87.5322 32.5352L90.4541 24.5H92.3125ZM103.055 30.4404H95.2881C95.3167 31.665 95.6462 32.6104 96.2764 33.2764C96.9066 33.9424 97.7731 34.2754 98.876 34.2754C100.115 34.2754 101.254 33.8672 102.292 33.0508V34.7051C101.325 35.4069 100.047 35.7578 98.457 35.7578C96.903 35.7578 95.682 35.2601 94.7939 34.2646C93.9059 33.262 93.4619 31.8548 93.4619 30.043C93.4619 28.3314 93.9453 26.9385 94.9121 25.8643C95.8861 24.7829 97.0928 24.2422 98.5322 24.2422C99.9717 24.2422 101.085 24.7077 101.873 25.6387C102.661 26.5697 103.055 27.8623 103.055 29.5166V30.4404ZM101.25 28.9473C101.243 27.9303 100.996 27.139 100.509 26.5732C100.029 26.0075 99.3594 25.7246 98.5 25.7246C97.6693 25.7246 96.9639 26.0218 96.3838 26.6162C95.8037 27.2106 95.4456 27.9876 95.3096 28.9473H101.25ZM111.466 26.2832C111.158 26.0469 110.714 25.9287 110.134 25.9287C109.382 25.9287 108.752 26.2832 108.243 26.9922C107.742 27.7012 107.491 28.668 107.491 29.8926V35.5H105.729V24.5H107.491V26.7666H107.534C107.785 25.9932 108.168 25.3916 108.684 24.9619C109.199 24.5251 109.776 24.3066 110.413 24.3066C110.871 24.3066 111.222 24.3568 111.466 24.457V26.2832ZM119.823 35.7578C117.639 35.7578 115.888 35.0381 114.57 33.5986C113.26 32.1592 112.604 30.2865 112.604 27.9805C112.604 25.5026 113.274 23.526 114.613 22.0508C115.952 20.5755 117.775 19.8379 120.081 19.8379C122.208 19.8379 123.92 20.554 125.216 21.9863C126.519 23.4186 127.171 25.2913 127.171 27.6045C127.171 30.1182 126.505 32.1055 125.173 33.5664C123.841 35.0273 122.058 35.7578 119.823 35.7578ZM119.952 21.4707C118.334 21.4707 117.02 22.0544 116.01 23.2217C115 24.389 114.495 25.9215 114.495 27.8193C114.495 29.7171 114.986 31.2461 115.967 32.4062C116.955 33.5592 118.241 34.1357 119.823 34.1357C121.513 34.1357 122.845 33.5843 123.819 32.4814C124.793 31.3786 125.28 29.8353 125.28 27.8516C125.28 25.8177 124.808 24.2458 123.862 23.1357C122.917 22.0257 121.614 21.4707 119.952 21.4707ZM129.48 34.877V32.75C129.724 32.9648 130.014 33.1582 130.351 33.3301C130.694 33.502 131.052 33.6488 131.425 33.7705C131.804 33.8851 132.184 33.9746 132.563 34.0391C132.943 34.1035 133.294 34.1357 133.616 34.1357C134.726 34.1357 135.553 33.9316 136.098 33.5234C136.649 33.1081 136.925 32.5137 136.925 31.7402C136.925 31.3249 136.832 30.9632 136.646 30.6553C136.466 30.3473 136.216 30.068 135.894 29.8174C135.571 29.5596 135.188 29.3161 134.744 29.0869C134.307 28.8506 133.835 28.6035 133.326 28.3457C132.789 28.0736 132.288 27.7979 131.822 27.5186C131.357 27.2393 130.952 26.9313 130.608 26.5947C130.265 26.2581 129.993 25.8786 129.792 25.4561C129.599 25.0264 129.502 24.5251 129.502 23.9521C129.502 23.2503 129.656 22.6416 129.964 22.126C130.272 21.6032 130.676 21.1735 131.178 20.8369C131.679 20.5003 132.248 20.2497 132.886 20.085C133.53 19.9202 134.186 19.8379 134.852 19.8379C136.37 19.8379 137.476 20.0205 138.171 20.3857V22.416C137.261 21.7858 136.094 21.4707 134.669 21.4707C134.275 21.4707 133.881 21.5137 133.487 21.5996C133.093 21.6784 132.743 21.8109 132.435 21.9971C132.127 22.1833 131.876 22.4232 131.683 22.7168C131.489 23.0104 131.393 23.3685 131.393 23.791C131.393 24.1849 131.464 24.5251 131.607 24.8115C131.758 25.098 131.976 25.3594 132.263 25.5957C132.549 25.832 132.896 26.0612 133.305 26.2832C133.72 26.5052 134.196 26.7487 134.733 27.0137C135.285 27.2858 135.808 27.5723 136.302 27.873C136.796 28.1738 137.229 28.5068 137.602 28.8721C137.974 29.2373 138.268 29.6419 138.482 30.0859C138.704 30.5299 138.815 31.0384 138.815 31.6113C138.815 32.3704 138.665 33.015 138.364 33.5449C138.071 34.0677 137.67 34.4938 137.161 34.8232C136.66 35.1527 136.08 35.389 135.421 35.5322C134.762 35.6826 134.067 35.7578 133.337 35.7578C133.093 35.7578 132.793 35.7363 132.435 35.6934C132.076 35.6576 131.711 35.6003 131.339 35.5215C130.966 35.4499 130.612 35.3604 130.275 35.2529C129.946 35.1383 129.681 35.013 129.48 34.877ZM142.264 35.7363C141.934 35.7363 141.651 35.6182 141.415 35.3818C141.186 35.1455 141.071 34.8626 141.071 34.5332C141.071 34.2038 141.186 33.9209 141.415 33.6846C141.651 33.4411 141.934 33.3193 142.264 33.3193C142.6 33.3193 142.887 33.4411 143.123 33.6846C143.359 33.9209 143.478 34.2038 143.478 34.5332C143.478 34.8626 143.359 35.1455 143.123 35.3818C142.887 35.6182 142.6 35.7363 142.264 35.7363ZM158.581 35.5H156.583L154.95 31.1816H148.419L146.883 35.5H144.874L150.782 20.0957H152.651L158.581 35.5ZM154.359 29.5596L151.942 22.9961C151.864 22.7812 151.785 22.4375 151.706 21.9648H151.663C151.591 22.4017 151.509 22.7454 151.416 22.9961L149.021 29.5596H154.359ZM162.663 35.5H160.858V20.0957H162.663V35.5Z" fill="white" fill-opacity="0.9"/>
<path d="M39.5194 23.566C40.5493 23.5662 41.5582 23.8581 42.4307 24.4082C43.3031 24.9582 44.0038 25.7443 44.4525 26.6762C44.9011 27.6082 45.0796 28.6484 44.9674 29.6776C44.8552 30.7068 44.4569 31.6834 43.8181 32.4955C43.1793 33.3076 42.3259 33.9225 41.3556 34.2695C40.3854 34.6165 39.3375 34.6818 38.332 34.4578C37.3266 34.2337 36.4043 33.7295 35.6707 33.0028C34.9371 32.2761 34.422 31.3564 34.1843 30.349H29.1242C28.9965 31.1715 28.6853 31.9543 28.2138 32.6386C27.7423 33.3229 27.1228 33.8911 26.4018 34.3004C25.6808 34.7098 24.877 34.9497 24.0506 35.0022C23.2242 35.0547 22.3967 34.9184 21.6302 34.6036L19.0073 39.2686C20.0361 40.1372 20.7117 41.3554 20.906 42.6919C21.1003 44.0284 20.7996 45.39 20.0611 46.5183C19.3226 47.6466 18.1977 48.463 16.9 48.8124C15.6022 49.1618 14.2221 49.0199 13.0215 48.4138C11.821 47.8076 10.8836 46.7792 10.3875 45.5241C9.89136 44.2689 9.87098 42.8742 10.3302 41.6049C10.7894 40.3356 11.6963 39.2801 12.8786 38.6387C14.061 37.9973 15.4364 37.8147 16.7438 38.1257L19.5639 33.1113C18.6987 32.1099 18.223 30.8276 18.2247 29.5011C18.2247 27.963 18.8505 26.5725 19.8608 25.5737L17.157 20.7612C16.3348 21.025 15.4624 21.0901 14.6105 20.9512C13.7586 20.8123 12.9513 20.4733 12.2542 19.9618C11.5571 19.4503 10.9898 18.7807 10.5985 18.0074C10.2071 17.234 10.0028 16.3788 10.002 15.5112C10.002 14.6026 10.2254 13.7082 10.6524 12.9074C11.0793 12.1066 11.6966 11.4244 12.4492 10.9215C13.2018 10.4185 14.0664 10.1104 14.9661 10.0246C15.8657 9.93883 16.7726 10.078 17.6058 10.4297C18.4391 10.7814 19.1729 11.3347 19.742 12.0405C20.3111 12.7462 20.6979 13.5825 20.8678 14.4748C21.0377 15.3672 20.9856 16.2879 20.716 17.1551C20.4465 18.0223 19.9678 18.809 19.3227 19.4453L22.0265 24.2544C23.4095 23.8065 24.9128 23.929 26.206 24.5948C27.4993 25.2606 28.4767 26.4154 28.9235 27.8053H34.1843C34.4691 26.5981 35.1508 25.5228 36.119 24.7534C37.0872 23.9841 38.2853 23.5657 39.5194 23.566ZM23.7065 26.5335C23.313 26.5239 22.9217 26.5936 22.5554 26.7383C22.1891 26.883 21.8553 27.1 21.5736 27.3763C21.2919 27.6526 21.0681 27.9828 20.9152 28.3474C20.7623 28.712 20.6835 29.1037 20.6834 29.4994C20.6832 29.895 20.7618 30.2867 20.9145 30.6514C21.0672 31.0161 21.2909 31.3464 21.5724 31.6229C21.8539 31.8994 22.1876 32.1165 22.5538 32.2615C22.92 32.4064 23.3114 32.4763 23.7048 32.4669C24.4752 32.4486 25.208 32.1282 25.7465 31.574C26.285 31.0198 26.5866 30.2758 26.5868 29.5011C26.5871 28.7263 26.2859 27.9822 25.7477 27.4277C25.2095 26.8732 24.4769 26.5523 23.7065 26.5335ZM15.4838 12.5436C14.7009 12.5436 13.9501 12.8562 13.3966 13.4128C12.843 13.9693 12.532 14.7241 12.532 15.5112C12.532 16.2982 12.843 17.053 13.3966 17.6095C13.9501 18.1661 14.7009 18.4787 15.4838 18.4787C16.2666 18.4787 17.0174 18.1661 17.571 17.6095C18.1245 17.053 18.4355 16.2982 18.4355 15.5112C18.4355 14.7241 18.1245 13.9693 17.571 13.4128C17.0174 12.8562 16.2666 12.5436 15.4838 12.5436ZM36.5677 29.0771C36.5677 29.8642 36.8787 30.619 37.4322 31.1755C37.9858 31.732 38.7366 32.0447 39.5194 32.0447C40.3023 32.0447 41.053 31.732 41.6066 31.1755C42.1602 30.619 42.4711 29.8642 42.4711 29.0771C42.4711 28.2901 42.1602 27.5353 41.6066 26.9788C41.053 26.4222 40.3023 26.1096 39.5194 26.1096C38.7366 26.1096 37.9858 26.4222 37.4322 26.9788C36.8787 27.5353 36.5677 28.2901 36.5677 29.0771ZM12.532 43.491C12.5323 44.2783 12.8436 45.0332 13.3974 45.5897C13.9513 46.1463 14.7024 46.4588 15.4855 46.4586C16.2685 46.4583 17.0195 46.1454 17.573 45.5885C18.1266 45.0317 18.4374 44.2766 18.4372 43.4893C18.4371 43.0995 18.3606 42.7135 18.2121 42.3534C18.0637 41.9933 17.8461 41.6661 17.5718 41.3906C17.2976 41.115 16.972 40.8964 16.6138 40.7474C16.2555 40.5983 15.8715 40.5216 15.4838 40.5217C15.096 40.5219 14.7121 40.5987 14.3539 40.748C13.9958 40.8973 13.6703 41.1161 13.3962 41.3918C13.1221 41.6675 12.9048 41.9948 12.7565 42.355C12.6082 42.7152 12.5319 43.1012 12.532 43.491Z" fill="white" fill-opacity="0.9"/>
<path d="M68.9355 58.6992H68.9004V60H67.459V46.6758H68.9004V52.582H68.9355C69.6445 51.3867 70.6816 50.7891 72.0469 50.7891C73.2012 50.7891 74.1035 51.1934 74.7539 52.002C75.4102 52.8047 75.7383 53.8828 75.7383 55.2363C75.7383 56.7422 75.3721 57.9492 74.6396 58.8574C73.9072 59.7598 72.9053 60.2109 71.6338 60.2109C70.4443 60.2109 69.5449 59.707 68.9355 58.6992ZM68.9004 55.0693V56.3262C68.9004 57.0703 69.1406 57.7031 69.6211 58.2246C70.1074 58.7402 70.7227 58.998 71.4668 58.998C72.3398 58.998 73.0225 58.6641 73.5146 57.9961C74.0127 57.3281 74.2617 56.3994 74.2617 55.21C74.2617 54.208 74.0303 53.4229 73.5674 52.8545C73.1045 52.2861 72.4775 52.002 71.6865 52.002C70.8486 52.002 70.1748 52.2949 69.665 52.8809C69.1553 53.4609 68.9004 54.1904 68.9004 55.0693ZM85.2744 55.8604H78.9199C78.9434 56.8623 79.2129 57.6357 79.7285 58.1807C80.2441 58.7256 80.9531 58.998 81.8555 58.998C82.8691 58.998 83.8008 58.6641 84.6504 57.9961V59.3496C83.8594 59.9238 82.8135 60.2109 81.5127 60.2109C80.2412 60.2109 79.2422 59.8037 78.5156 58.9893C77.7891 58.1689 77.4258 57.0176 77.4258 55.5352C77.4258 54.1348 77.8213 52.9951 78.6123 52.1162C79.4092 51.2314 80.3965 50.7891 81.5742 50.7891C82.752 50.7891 83.6631 51.1699 84.3076 51.9316C84.9521 52.6934 85.2744 53.751 85.2744 55.1045V55.8604ZM83.7979 54.6387C83.792 53.8066 83.5898 53.1592 83.1914 52.6963C82.7988 52.2334 82.251 52.002 81.5479 52.002C80.8682 52.002 80.291 52.2451 79.8164 52.7314C79.3418 53.2178 79.0488 53.8535 78.9375 54.6387H83.7979ZM91.6377 59.9121C91.2979 60.0996 90.8496 60.1934 90.293 60.1934C88.7168 60.1934 87.9287 59.3145 87.9287 57.5566V52.2305H86.3818V51H87.9287V48.8027L89.3701 48.3369V51H91.6377V52.2305H89.3701V57.3018C89.3701 57.9053 89.4727 58.3359 89.6777 58.5938C89.8828 58.8516 90.2227 58.9805 90.6973 58.9805C91.0605 58.9805 91.374 58.8809 91.6377 58.6816V59.9121ZM100.005 60H98.5635V58.5938H98.5283C97.9014 59.6719 96.9785 60.2109 95.7598 60.2109C94.8633 60.2109 94.1602 59.9736 93.6504 59.499C93.1465 59.0244 92.8945 58.3945 92.8945 57.6094C92.8945 55.9277 93.8848 54.9492 95.8652 54.6738L98.5635 54.2959C98.5635 52.7666 97.9453 52.002 96.709 52.002C95.625 52.002 94.6465 52.3711 93.7734 53.1094V51.6328C94.6582 51.0703 95.6777 50.7891 96.832 50.7891C98.9473 50.7891 100.005 51.9082 100.005 54.1465V60ZM98.5635 55.4473L96.3926 55.7461C95.7246 55.8398 95.2207 56.0068 94.8809 56.2471C94.541 56.4814 94.3711 56.9004 94.3711 57.5039C94.3711 57.9434 94.5264 58.3037 94.8369 58.585C95.1533 58.8604 95.5723 58.998 96.0938 58.998C96.8086 58.998 97.3975 58.749 97.8604 58.251C98.3291 57.7471 98.5635 57.1113 98.5635 56.3438V55.4473Z" fill="#E5FF00"/>
</svg>
