<svg width="21" height="20" viewBox="0 0 21 20" fill="none" xmlns="http://www.w3.org/2000/svg">
<path d="M9.75 18.4615C7.05 18.4615 4.425 17.0769 2.85 14.6154H6.75V13.0769H0.75V19.2308H2.25V16.3846C4.125 18.6923 6.825 20 9.75 20V18.4615ZM21 15.3846V13.8462H19.425C19.35 13.3846 19.125 12.9231 18.9 12.4615L20.025 11.3077L18.975 10.2308L17.85 11.3846C17.475 11.1538 17.025 10.9231 16.5 10.8462V9.23077H15V10.8462C14.55 10.9231 14.1 11.1538 13.65 11.3846L12.525 10.2308L11.475 11.3077L12.6 12.4615C12.375 12.8462 12.15 13.3077 12.075 13.8462H10.5V15.3846H12.075C12.15 15.8462 12.375 16.3077 12.6 16.7692L11.475 17.9231L12.525 19L13.65 17.8462C14.025 18.0769 14.475 18.3077 15 18.3846V20H16.5V18.3846C16.95 18.3077 17.4 18.0769 17.85 17.8462L18.975 19L20.025 17.9231L18.9 16.7692C19.125 16.3846 19.35 15.9231 19.425 15.3846H21ZM15.75 16.9231C14.475 16.9231 13.5 15.9231 13.5 14.6154C13.5 13.3077 14.475 12.3077 15.75 12.3077C17.025 12.3077 18 13.3077 18 14.6154C18 15.9231 17.025 16.9231 15.75 16.9231ZM12.75 5.38462H16.65C14.175 1.46154 9.075 0.384616 5.25 2.92308C2.925 4.46154 1.5 7.15385 1.5 10H0C0 4.46154 4.35 0 9.75 0C12.675 0 15.375 1.30769 17.25 3.61538V0.769231H18.75V6.92308H12.75V5.38462Z" fill="white"/>
</svg>
