<svg width="23" height="23" viewBox="0 0 23 23" fill="none" xmlns="http://www.w3.org/2000/svg">
<path fill-rule="evenodd" clip-rule="evenodd" d="M17.9508 0.258996C18.1167 0.0931608 18.3416 0 18.5762 0C18.8108 0 19.0357 0.0931608 19.2016 0.258996L22.7401 3.79735C22.8225 3.87952 22.8879 3.97714 22.9324 4.0846C22.977 4.19207 23 4.30728 23 4.42364C23 4.53999 22.977 4.6552 22.9324 4.76267C22.8879 4.87014 22.8225 4.96776 22.7401 5.04993L15.7657 12.024C15.6313 12.1589 15.476 12.2712 15.3057 12.3566L8.35791 15.8295C8.19199 15.9123 8.00422 15.9409 7.82117 15.9112C7.63811 15.8815 7.46901 15.7951 7.33778 15.664C7.20655 15.533 7.11982 15.364 7.08985 15.181C7.05987 14.998 7.08818 14.8102 7.17075 14.6442L10.6438 7.69485C10.7292 7.52462 10.8415 7.36929 10.9764 7.23486L17.9508 0.258996ZM18.5771 2.13609L12.2255 8.48744L10.3908 12.1603L10.8402 12.6096L14.5149 10.7732L20.8647 4.42364L18.5771 2.13609ZM14.154 1.76987L12.3847 3.53905H5.13081C4.37357 3.53905 3.85695 3.53905 3.46064 3.57266C3.07141 3.60451 2.87325 3.66112 2.73525 3.73189C2.40236 3.9015 2.13171 4.17214 1.96209 4.50502C1.89132 4.64302 1.83471 4.84117 1.80286 5.23038C1.76925 5.62668 1.76925 6.14328 1.76925 6.90049V17.8694C1.76925 18.6266 1.76925 19.1432 1.80286 19.5395C1.83471 19.9287 1.89132 20.1269 1.96209 20.2649C2.13171 20.5977 2.40236 20.8684 2.73525 21.038C2.87325 21.1087 3.07141 21.1654 3.46064 21.1972C3.85872 21.2308 4.37357 21.2308 5.13081 21.2308H16.1001C16.8574 21.2308 17.374 21.2308 17.7703 21.1972C18.1595 21.1654 18.3577 21.1087 18.4957 21.038C18.8286 20.8684 19.0992 20.5977 19.2688 20.2649C19.3396 20.1269 19.3962 19.9287 19.4281 19.5395C19.4617 19.1414 19.4617 18.6266 19.4617 17.8694V10.6158L21.2309 8.84658V17.9048C21.2309 18.6177 21.2309 19.2051 21.192 19.6846C21.1513 20.1817 21.0646 20.6399 20.8452 21.0681C20.506 21.7338 19.9647 22.2751 19.2989 22.6143C18.869 22.8337 18.4125 22.9204 17.9154 22.9611C17.4377 23 16.8485 23 16.1373 23H5.09543C4.38242 23 3.79503 23 3.31557 22.9611C2.81841 22.9204 2.36017 22.8337 1.93202 22.6143C1.26624 22.2751 0.724937 21.7338 0.385695 21.0681C0.166309 20.6381 0.0796162 20.1817 0.0389235 19.6846C1.31819e-07 19.2069 0 18.6177 0 17.9048V6.8651C0 6.15213 1.31819e-07 5.56476 0.0389235 5.08531C0.0796162 4.58817 0.166309 4.12996 0.385695 3.70181C0.724937 3.03606 1.26624 2.49478 1.93202 2.15555C2.36194 1.93618 2.81841 1.84949 3.31557 1.80879C3.79326 1.76987 4.38242 1.76987 5.09543 1.76987H14.154Z" fill="white"/>
</svg>
