<svg width="44" height="44" viewBox="0 0 44 44" fill="none" xmlns="http://www.w3.org/2000/svg">
<circle cx="22" cy="22" r="22" fill="#EA4335"/>
<path d="M19.5995 25.9297C18.9384 25.3764 18.478 24.6571 18.2783 23.8655C18.0786 23.0739 18.1488 22.2466 18.4797 21.4914C18.8107 20.7361 19.3871 20.0878 20.1339 19.6309C20.8808 19.174 21.7634 18.9297 22.667 18.9297C23.5706 18.9297 24.4532 19.174 25.2 19.6309C25.9469 20.0878 26.5233 20.7361 26.8542 21.4914C27.1852 22.2466 27.2554 23.0739 27.0557 23.8655C26.856 24.6571 26.3956 25.3764 25.7345 25.9297" stroke="white" stroke-width="2" stroke-linecap="round" stroke-linejoin="round"/>
<path d="M16.1909 29.9297C15.2359 29.0659 14.4744 28.0198 13.9541 26.8566C13.4338 25.6935 13.1658 24.4385 13.167 23.17C13.167 18.0665 17.4201 13.9297 22.667 13.9297C27.9139 13.9297 32.167 18.0665 32.167 23.17C32.1686 24.4385 31.9009 25.6937 31.3805 26.8569C30.8602 28.0201 30.0984 29.0662 29.1431 29.9297" stroke="white" stroke-width="2" stroke-linecap="round" stroke-linejoin="round"/>
<path d="M12.7816 33.9297C11.3239 32.58 10.1616 30.9453 9.36755 29.1278C8.57351 27.3103 8.1648 25.3492 8.167 23.3672C8.167 15.3934 14.6586 8.92969 22.667 8.92969C30.6753 8.92969 37.167 15.3934 37.167 23.3672C37.1692 25.3492 36.7605 27.3103 35.9664 29.1278C35.1724 30.9453 34.0101 32.58 32.5524 33.9297" stroke="white" stroke-width="2" stroke-linecap="round" stroke-linejoin="round"/>
</svg>
