<svg width="12" height="19" viewBox="0 0 12 19" fill="none" xmlns="http://www.w3.org/2000/svg">
<path d="M6 0C4.78482 0.00277883 3.59897 0.379375 2.59872 1.08017C1.59846 1.78096 0.830733 2.77306 0.396689 3.92576C-0.0373558 5.07845 -0.117349 6.33765 0.167249 7.53743C0.451847 8.7372 1.08768 9.82127 1.99097 10.6468V19L6 16.2857L10.009 19V10.6468C10.9123 9.82127 11.5482 8.7372 11.8328 7.53743C12.1173 6.33765 12.0374 5.07845 11.6033 3.92576C11.1693 2.77306 10.4015 1.78096 9.40128 1.08017C8.40103 0.379375 7.21518 0.00277883 6 0ZM8.67268 16.4621L6.74167 15.1593L6 14.6571L5.25833 15.1593L3.32732 16.4621V11.5696C4.15618 11.9943 5.07161 12.2156 6 12.2156C6.92839 12.2156 7.84382 11.9943 8.67268 11.5696V16.4621ZM9.26736 9.5C8.49462 10.2662 7.48462 10.7371 6.40882 10.833C5.33301 10.9289 4.25769 10.6437 3.36538 10.0259C2.47308 9.40812 1.81877 8.49578 1.51353 7.44376C1.20828 6.39173 1.27092 5.26485 1.69079 4.25439C2.11067 3.24393 2.86192 2.41216 3.81702 1.90028C4.77211 1.38839 5.87221 1.22794 6.93055 1.44614C7.9889 1.66434 8.94029 2.24776 9.62322 3.09736C10.3062 3.94696 10.6786 5.0104 10.6772 6.10714C10.6764 6.73951 10.5513 7.36536 10.3092 7.94797C10.0671 8.53059 9.71291 9.05825 9.26736 9.5Z" fill="#2368C4"/>
<circle cx="6" cy="6" r="4" fill="#34A853"/>
</svg>
