<svg width="40" height="40" viewBox="0 0 40 40" fill="none" xmlns="http://www.w3.org/2000/svg">
<path d="M13.3337 28.333V24.9997H16.9587C16.8198 25.5552 16.7298 26.1108 16.6887 26.6663C16.6475 27.2219 16.6542 27.7775 16.7087 28.333H13.3337ZM13.3337 36.6663C11.0281 36.6663 9.0631 35.8536 7.43866 34.228C5.81421 32.6025 5.00144 30.6375 5.00033 28.333V13.333C4.08366 13.333 3.29921 13.0069 2.64699 12.3547C1.99477 11.7025 1.6681 10.9175 1.66699 9.99967V6.66634C1.66699 5.74967 1.99366 4.96523 2.64699 4.31301C3.30033 3.66079 4.08477 3.33412 5.00033 3.33301H21.667C22.5837 3.33301 23.3687 3.65967 24.022 4.31301C24.6753 4.96634 25.0014 5.75079 25.0003 6.66634V9.99967C25.0003 10.9163 24.6742 11.7013 24.022 12.3547C23.3698 13.008 22.5848 13.3341 21.667 13.333V18.3747C21.0003 18.7913 20.3892 19.2775 19.8337 19.833C19.2781 20.3886 18.792 20.9997 18.3753 21.6663H13.3337V18.333H18.3337V13.333H8.33366V28.333C8.33366 29.7219 8.81977 30.9025 9.79199 31.8747C10.7642 32.8469 11.9448 33.333 13.3337 33.333C14.167 33.333 14.9242 33.1525 15.6053 32.7913C16.2864 32.4302 16.8625 31.9302 17.3337 31.2913C17.5559 31.8469 17.8059 32.3747 18.0837 32.8747C18.3614 33.3747 18.6948 33.8608 19.0837 34.333C18.3337 35.0552 17.4725 35.6247 16.5003 36.0413C15.5281 36.458 14.4725 36.6663 13.3337 36.6663ZM5.00033 9.99967H21.667V6.66634H5.00033V9.99967ZM27.5003 31.6663C28.667 31.6663 29.6531 31.2636 30.4587 30.458C31.2642 29.6525 31.667 28.6663 31.667 27.4997C31.667 26.333 31.2642 25.3469 30.4587 24.5413C29.6531 23.7358 28.667 23.333 27.5003 23.333C26.3337 23.333 25.3475 23.7358 24.542 24.5413C23.7364 25.3469 23.3337 26.333 23.3337 27.4997C23.3337 28.6663 23.7364 29.6525 24.542 30.458C25.3475 31.2636 26.3337 31.6663 27.5003 31.6663ZM36.0003 38.333L31.5003 33.833C30.8892 34.2219 30.2503 34.5136 29.5837 34.708C28.917 34.9025 28.2225 34.9997 27.5003 34.9997C25.417 34.9997 23.6464 34.2708 22.1887 32.813C20.7309 31.3552 20.0014 29.5841 20.0003 27.4997C19.9992 25.4152 20.7287 23.6447 22.1887 22.188C23.6487 20.7313 25.4192 20.0019 27.5003 19.9997C29.5814 19.9975 31.3525 20.7269 32.8137 22.188C34.2748 23.6491 35.0037 25.4197 35.0003 27.4997C35.0003 28.2219 34.9031 28.9163 34.7087 29.583C34.5142 30.2497 34.2225 30.8886 33.8337 31.4997L38.3337 35.9997L36.0003 38.333Z" fill="black"/>
</svg>
