<svg width="40" height="40" viewBox="0 0 40 40" fill="none" xmlns="http://www.w3.org/2000/svg">
<path d="M20 28.3333C20.4722 28.3333 20.8683 28.1733 21.1883 27.8533C21.5083 27.5333 21.6678 27.1378 21.6667 26.6667C21.6656 26.1956 21.5056 25.8 21.1867 25.48C20.8678 25.16 20.4722 25 20 25C19.5278 25 19.1322 25.16 18.8133 25.48C18.4944 25.8 18.3344 26.1956 18.3333 26.6667C18.3322 27.1378 18.4922 27.5339 18.8133 27.855C19.1344 28.1761 19.53 28.3356 20 28.3333ZM18.3333 21.6667H21.6667V11.6667H18.3333V21.6667ZM13.75 35L5 26.25V13.75L13.75 5H26.25L35 13.75V26.25L26.25 35H13.75ZM15.1667 31.6667H24.8333L31.6667 24.8333V15.1667L24.8333 8.33333H15.1667L8.33333 15.1667V24.8333L15.1667 31.6667Z" fill="black"/>
<line x1="20" y1="11" x2="20" y2="22" stroke="#2368C4" stroke-width="4"/>
</svg>
