<svg width="40" height="40" viewBox="0 0 40 40" fill="none" xmlns="http://www.w3.org/2000/svg">
<path d="M28.3333 20H15M15 20L20 15M15 20L20 25" stroke="#4962F1" stroke-width="2" stroke-linecap="round" stroke-linejoin="round"/>
<path d="M31.6663 23.3327C33.5073 23.3327 34.9997 21.8403 34.9997 19.9993C34.9997 18.1584 33.5073 16.666 31.6663 16.666C29.8254 16.666 28.333 18.1584 28.333 19.9993C28.333 21.8403 29.8254 23.3327 31.6663 23.3327Z" stroke="#4962F1" stroke-width="2"/>
<path d="M33.9213 10.833C33.2691 9.8435 32.5131 8.92637 31.6663 8.09719C28.5543 5.03812 24.3634 3.32673 19.9997 3.33303C10.7947 3.33303 3.33301 10.7947 3.33301 19.9997C3.33301 29.2047 10.7947 36.6664 19.9997 36.6664C24.5413 36.6664 28.6597 34.8497 31.6663 31.9022C32.5131 31.073 33.2691 30.1559 33.9213 29.1664" stroke="black" stroke-width="2" stroke-linecap="round"/>
</svg>
