<svg width="22" height="23" viewBox="0 0 22 23" fill="none" xmlns="http://www.w3.org/2000/svg">
<path fill-rule="evenodd" clip-rule="evenodd" d="M13.4288 3.2545C13.9275 3.4155 14.4041 3.6225 14.8588 3.8755L16.8751 2.6105C17.0853 2.47867 17.3317 2.42404 17.575 2.45529C17.8184 2.48654 18.0447 2.60188 18.2182 2.783L19.338 3.9537C19.5112 4.13506 19.6216 4.37172 19.6515 4.62611C19.6814 4.88051 19.6291 5.13805 19.503 5.35785L18.293 7.4658C18.535 7.94113 18.733 8.43947 18.887 8.9608L21.1673 9.55765C21.4052 9.61995 21.6163 9.76355 21.7672 9.96566C21.918 10.1678 22 10.4168 22 10.6732V12.3268C22 12.5832 21.918 12.8322 21.7672 13.0343C21.6163 13.2364 21.4052 13.3801 21.1673 13.4423L18.887 14.0392C18.733 14.5605 18.535 15.0589 18.293 15.5342L19.503 17.6421C19.6291 17.8619 19.6814 18.1195 19.6515 18.3739C19.6216 18.6283 19.5112 18.8649 19.338 19.0463L18.2182 20.217C18.0447 20.3981 17.8184 20.5135 17.575 20.5447C17.3317 20.576 17.0853 20.5213 16.8751 20.3895L14.8588 19.1245C14.4041 19.3775 13.9275 19.5845 13.4288 19.7455L12.8579 22.1294C12.7983 22.3781 12.6609 22.5989 12.4676 22.7566C12.2743 22.9143 12.0361 23 11.7909 23H10.2091C9.96388 23 9.72569 22.9143 9.53237 22.7566C9.33905 22.5989 9.20169 22.3781 9.1421 22.1294L8.5712 19.7455C8.07696 19.5858 7.59819 19.3779 7.1412 19.1245L5.1249 20.3895C4.91466 20.5213 4.66831 20.576 4.42498 20.5447C4.18164 20.5135 3.95527 20.3981 3.7818 20.217L2.662 19.0463C2.48876 18.8649 2.37843 18.6283 2.34854 18.3739C2.31865 18.1195 2.3709 17.8619 2.497 17.6421L3.707 15.5342C3.46461 15.0564 3.26573 14.5559 3.113 14.0392L0.8327 13.4423C0.595011 13.3801 0.384008 13.2367 0.233159 13.0348C0.0823097 12.8329 0.000251507 12.5842 0 12.328V10.6743C6.44648e-06 10.4179 0.0819524 10.1689 0.232821 9.96681C0.383689 9.7647 0.594829 9.6211 0.8327 9.5588L3.113 8.96195C3.267 8.44062 3.465 7.94228 3.707 7.46695L2.497 5.359C2.3709 5.1392 2.31865 4.88166 2.34854 4.62726C2.37843 4.37287 2.48876 4.13621 2.662 3.95485L3.7818 2.783C3.95527 2.60188 4.18164 2.48654 4.42498 2.45529C4.66831 2.42404 4.91466 2.47867 5.1249 2.6105L7.1412 3.8755C7.59587 3.6225 8.07253 3.4155 8.5712 3.2545L9.1421 0.87055C9.20164 0.622057 9.33884 0.401463 9.53194 0.243757C9.72503 0.086051 9.96297 0.000262939 10.208 0H11.7898C12.035 6.7395e-06 12.2732 0.0856775 12.4665 0.243404C12.6598 0.40113 12.7972 0.621866 12.8568 0.87055L13.4288 3.2545ZM11 16.1C12.167 16.1 13.2861 15.6154 14.1113 14.7527C14.9364 13.89 15.4 12.72 15.4 11.5C15.4 10.28 14.9364 9.10998 14.1113 8.24731C13.2861 7.38464 12.167 6.9 11 6.9C9.83305 6.9 8.71389 7.38464 7.88873 8.24731C7.06357 9.10998 6.6 10.28 6.6 11.5C6.6 12.72 7.06357 13.89 7.88873 14.7527C8.71389 15.6154 9.83305 16.1 11 16.1Z" fill="#5C5C5C"/>
</svg>
