<svg width="23" height="20" viewBox="0 0 23 20" fill="none" xmlns="http://www.w3.org/2000/svg">
<path d="M21.515 10C21.515 9.66848 21.3586 9.35054 21.0801 9.11612C20.8016 8.8817 20.4238 8.75 20.03 8.75C19.6361 8.75 19.2584 8.8817 18.9799 9.11612C18.7014 9.35054 18.5449 9.66848 18.5449 10V18.75C18.5449 19.0815 18.7014 19.3995 18.9799 19.6339C19.2584 19.8683 19.6361 20 20.03 20C20.4238 20 20.8016 19.8683 21.0801 19.6339C21.3586 19.3995 21.515 19.0815 21.515 18.75V10Z" fill="url(#paint0_linear_562_3082)"/>
<path d="M9.63465 12.5C9.63465 12.1685 9.47819 11.8505 9.19969 11.6161C8.92119 11.3817 8.54346 11.25 8.1496 11.25C7.75574 11.25 7.37801 11.3817 7.09951 11.6161C6.82101 11.8505 6.66455 12.1685 6.66455 12.5V18.75C6.66455 19.0815 6.82101 19.3995 7.09951 19.6339C7.37801 19.8683 7.75574 20 8.1496 20C8.54346 20 8.92119 19.8683 9.19969 19.6339C9.47819 19.3995 9.63465 19.0815 9.63465 18.75V12.5Z" fill="url(#paint1_linear_562_3082)"/>
<path d="M3.69471 16.25C3.69471 15.9185 3.53825 15.6005 3.25975 15.3661C2.98124 15.1317 2.60352 15 2.20966 15C1.8158 15 1.43807 15.1317 1.15957 15.3661C0.881069 15.6005 0.724609 15.9185 0.724609 16.25V18.75C0.724609 19.0815 0.881069 19.3995 1.15957 19.6339C1.43807 19.8683 1.8158 20 2.20966 20C2.60352 20 2.98124 19.8683 3.25975 19.6339C3.53825 19.3995 3.69471 19.0815 3.69471 18.75V16.25Z" fill="url(#paint2_linear_562_3082)"/>
<path d="M14.09 13.75C14.4839 13.75 14.8616 13.8817 15.1401 14.1161C15.4186 14.3505 15.5751 14.6685 15.5751 15V18.75C15.5751 19.0815 15.4186 19.3995 15.1401 19.6339C14.8616 19.8683 14.4839 20 14.09 20C13.6962 20 13.3184 19.8683 13.0399 19.6339C12.7614 19.3995 12.605 19.0815 12.605 18.75V15C12.605 14.6685 12.7614 14.3505 13.0399 14.1161C13.3184 13.8817 13.6962 13.75 14.09 13.75Z" fill="url(#paint3_linear_562_3082)"/>
<path fill-rule="evenodd" clip-rule="evenodd" d="M17.0598 2.5C16.6659 2.5 16.2882 2.3683 16.0097 2.13388C15.7312 1.89946 15.5748 1.58152 15.5748 1.25C15.5748 0.918479 15.7312 0.600537 16.0097 0.366116C16.2882 0.131696 16.6659 0 17.0598 0H21.515C21.9088 0 22.2865 0.131696 22.565 0.366116C22.8435 0.600537 23 0.918479 23 1.25V5C23 5.33152 22.8435 5.64946 22.565 5.88388C22.2865 6.1183 21.9088 6.25 21.515 6.25C21.1211 6.25 20.7434 6.1183 20.4649 5.88388C20.1864 5.64946 20.0299 5.33152 20.0299 5V4.2675L14.3971 9.00875C14.1186 9.24309 13.741 9.37473 13.3472 9.37473C12.9534 9.37473 12.5757 9.24309 12.2973 9.00875L8.89204 6.1425L2.51673 11.5087C2.23665 11.7364 1.86152 11.8624 1.47214 11.8596C1.08277 11.8567 0.710301 11.7253 0.434961 11.4935C0.159621 11.2618 0.0034397 10.9482 5.61387e-05 10.6205C-0.00332742 10.2928 0.146357 9.977 0.416871 9.74125L7.84211 3.49125C8.1206 3.25691 8.49826 3.12527 8.89204 3.12527C9.28582 3.12527 9.66348 3.25691 9.94197 3.49125L13.3472 6.3575L17.93 2.5H17.0598Z" fill="url(#paint4_linear_562_3082)"/>
<defs>
<linearGradient id="paint0_linear_562_3082" x1="22.8709" y1="8.10125" x2="1.68274" y2="23.2409" gradientUnits="userSpaceOnUse">
<stop stop-color="#0094F0"/>
<stop offset="1" stop-color="#2764E7"/>
</linearGradient>
<linearGradient id="paint1_linear_562_3082" x1="22.8709" y1="8.10125" x2="1.68276" y2="23.2409" gradientUnits="userSpaceOnUse">
<stop stop-color="#0094F0"/>
<stop offset="1" stop-color="#2764E7"/>
</linearGradient>
<linearGradient id="paint2_linear_562_3082" x1="22.8711" y1="8.10125" x2="1.68301" y2="23.2409" gradientUnits="userSpaceOnUse">
<stop stop-color="#0094F0"/>
<stop offset="1" stop-color="#2764E7"/>
</linearGradient>
<linearGradient id="paint3_linear_562_3082" x1="22.8711" y1="8.10125" x2="1.68299" y2="23.2409" gradientUnits="userSpaceOnUse">
<stop stop-color="#0094F0"/>
<stop offset="1" stop-color="#2764E7"/>
</linearGradient>
<linearGradient id="paint4_linear_562_3082" x1="0.791102" y1="11.875" x2="20.4092" y2="-4.14931" gradientUnits="userSpaceOnUse">
<stop stop-color="#22918B"/>
<stop offset="1" stop-color="#20AC9D"/>
</linearGradient>
</defs>
</svg>
