<svg width="44" height="44" viewBox="0 0 44 44" fill="none" xmlns="http://www.w3.org/2000/svg">
<circle cx="22" cy="22" r="22" fill="#A834A2"/>
<path d="M36.3333 7.66732H31.3333V6.00065C31.3333 5.55862 31.1577 5.1347 30.8452 4.82214C30.5326 4.50958 30.1087 4.33398 29.6667 4.33398C29.2246 4.33398 28.8007 4.50958 28.4882 4.82214C28.1756 5.1347 28 5.55862 28 6.00065V7.66732H24.6667V6.00065C24.6667 5.55862 24.4911 5.1347 24.1785 4.82214C23.8659 4.50958 23.442 4.33398 23 4.33398C22.558 4.33398 22.134 4.50958 21.8215 4.82214C21.5089 5.1347 21.3333 5.55862 21.3333 6.00065V7.66732H18V6.00065C18 5.55862 17.8244 5.1347 17.5118 4.82214C17.1993 4.50958 16.7754 4.33398 16.3333 4.33398C15.8913 4.33398 15.4674 4.50958 15.1548 4.82214C14.8423 5.1347 14.6667 5.55862 14.6667 6.00065V7.66732H9.66667C9.22464 7.66732 8.80072 7.84291 8.48816 8.15547C8.17559 8.46803 8 8.89196 8 9.33398V32.6673C8 33.9934 8.52678 35.2652 9.46447 36.2029C10.4021 37.1405 11.6739 37.6673 13 37.6673H33C34.3261 37.6673 35.5979 37.1405 36.5355 36.2029C37.4732 35.2652 38 33.9934 38 32.6673V9.33398C38 8.89196 37.8244 8.46803 37.5118 8.15547C37.1993 7.84291 36.7754 7.66732 36.3333 7.66732ZM34.6667 32.6673C34.6667 33.1093 34.4911 33.5333 34.1785 33.8458C33.866 34.1584 33.442 34.334 33 34.334H13C12.558 34.334 12.134 34.1584 11.8215 33.8458C11.5089 33.5333 11.3333 33.1093 11.3333 32.6673V11.0007H14.6667V12.6673C14.6667 13.1093 14.8423 13.5333 15.1548 13.8458C15.4674 14.1584 15.8913 14.334 16.3333 14.334C16.7754 14.334 17.1993 14.1584 17.5118 13.8458C17.8244 13.5333 18 13.1093 18 12.6673V11.0007H21.3333V12.6673C21.3333 13.1093 21.5089 13.5333 21.8215 13.8458C22.134 14.1584 22.558 14.334 23 14.334C23.442 14.334 23.8659 14.1584 24.1785 13.8458C24.4911 13.5333 24.6667 13.1093 24.6667 12.6673V11.0007H28V12.6673C28 13.1093 28.1756 13.5333 28.4882 13.8458C28.8007 14.1584 29.2246 14.334 29.6667 14.334C30.1087 14.334 30.5326 14.1584 30.8452 13.8458C31.1577 13.5333 31.3333 13.1093 31.3333 12.6673V11.0007H34.6667V32.6673Z" fill="white"/>
<path d="M31 19L19 19" stroke="white" stroke-width="2" stroke-linecap="round"/>
<path d="M31 24L16 24" stroke="white" stroke-width="2" stroke-linecap="round"/>
<path d="M31 28L13 28" stroke="white" stroke-width="2" stroke-linecap="round"/>
</svg>
