<svg width="40" height="40" viewBox="0 0 40 40" fill="none" xmlns="http://www.w3.org/2000/svg">
<path d="M8.63743 34.693C6.96184 33.135 5.62589 31.2478 4.7132 29.1497C3.80052 27.0516 3.33073 24.7877 3.33326 22.4997C3.33326 13.2947 10.7949 5.83301 19.9999 5.83301C29.2049 5.83301 36.6666 13.2947 36.6666 22.4997C36.6691 24.7877 36.1993 27.0516 35.2867 29.1497C34.374 31.2478 33.038 33.135 31.3624 34.693" stroke="black" stroke-width="2" stroke-linecap="round" stroke-linejoin="round"/>
<path d="M12.6148 30.4243C11.5258 29.4117 10.6574 28.1852 10.0641 26.8215C9.47072 25.4579 9.16516 23.9865 9.16651 22.4993C9.16651 16.516 14.0165 11.666 19.9998 11.666C25.9832 11.666 30.8332 16.516 30.8332 22.4993C30.835 23.9866 30.5297 25.4581 29.9363 26.8218C29.3429 28.1855 28.4743 29.412 27.3848 30.4243" stroke="black" stroke-width="2" stroke-linecap="round" stroke-linejoin="round"/>
<path d="M16.5917 26.1583C15.8571 25.4739 15.3456 24.5843 15.1237 23.6051C14.9018 22.626 14.9798 21.6027 15.3475 20.6685C15.7152 19.7344 16.3557 18.9325 17.1855 18.3674C18.0153 17.8022 18.996 17.5 20 17.5C21.004 17.5 21.9847 17.8022 22.8145 18.3674C23.6443 18.9325 24.2848 19.7344 24.6525 20.6685C25.0202 21.6027 25.0982 22.626 24.8763 23.6051C24.6544 24.5843 24.1429 25.4739 23.4083 26.1583" stroke="#2368C4" stroke-width="2" stroke-linecap="round" stroke-linejoin="round"/>
</svg>
