<svg width="44" height="44" viewBox="0 0 44 44" fill="none" xmlns="http://www.w3.org/2000/svg">
<circle cx="22" cy="22" r="22" fill="#2368C4"/>
<path d="M19.5992 25.9297C18.9381 25.3764 18.4778 24.6571 18.278 23.8655C18.0783 23.0739 18.1485 22.2466 18.4795 21.4914C18.8105 20.7361 19.3869 20.0878 20.1337 19.6309C20.8805 19.174 21.7632 18.9297 22.6667 18.9297C23.5703 18.9297 24.453 19.174 25.1998 19.6309C25.9466 20.0878 26.523 20.7361 26.854 21.4914C27.185 22.2466 27.2552 23.0739 27.0554 23.8655C26.8557 24.6571 26.3954 25.3764 25.7342 25.9297" stroke="white" stroke-width="2" stroke-linecap="round" stroke-linejoin="round"/>
<path d="M16.1907 29.9297C15.2356 29.0659 14.4742 28.0198 13.9538 26.8566C13.4335 25.6935 13.1656 24.4385 13.1668 23.17C13.1668 18.0665 17.4198 13.9297 22.6667 13.9297C27.9137 13.9297 32.1667 18.0665 32.1667 23.17C32.1684 24.4385 31.9006 25.6937 31.3803 26.8569C30.8599 28.0201 30.0982 29.0662 29.1428 29.9297" stroke="white" stroke-width="2" stroke-linecap="round" stroke-linejoin="round"/>
<path d="M12.7814 33.9297C11.3236 32.58 10.1613 30.9453 9.36731 29.1278C8.57327 27.3103 8.16456 25.3492 8.16676 23.3672C8.16676 15.3934 14.6584 8.92969 22.6667 8.92969C30.6751 8.92969 37.1667 15.3934 37.1667 23.3672C37.1689 25.3492 36.7602 27.3103 35.9662 29.1278C35.1722 30.9453 34.0099 32.58 32.5521 33.9297" stroke="white" stroke-width="2" stroke-linecap="round" stroke-linejoin="round"/>
</svg>
