<svg width="40" height="40" viewBox="0 0 40 40" fill="none" xmlns="http://www.w3.org/2000/svg">
<g clip-path="url(#clip0_476_426)">
<path d="M23.3334 13.3337H7.77786C7.48317 13.3337 7.20056 13.2166 6.99219 13.0082C6.78381 12.7998 6.66675 12.5172 6.66675 12.2225V7.7781C6.66675 7.48342 6.78381 7.2008 6.99219 6.99243C7.20056 6.78406 7.48317 6.66699 7.77786 6.66699H23.3334C23.6281 6.66699 23.9107 6.78406 24.1191 6.99243C24.3275 7.2008 24.4445 7.48342 24.4445 7.7781V12.2225C24.4445 12.5172 24.3275 12.7998 24.1191 13.0082C23.9107 13.2166 23.6281 13.3337 23.3334 13.3337ZM8.88897 11.1114H22.2223V8.82255H8.88897V11.1114Z" fill="black"/>
<path d="M23.3334 15.6445H7.77786C7.48317 15.6445 7.20056 15.7616 6.99219 15.97C6.78381 16.1783 6.66675 16.461 6.66675 16.7556V21.1112C6.66675 21.4059 6.78381 21.6885 6.99219 21.8969C7.20056 22.1052 7.48317 22.2223 7.77786 22.2223H20.4001L24.4445 18.1112V16.7556C24.4445 16.461 24.3275 16.1783 24.1191 15.97C23.9107 15.7616 23.6281 15.6445 23.3334 15.6445ZM22.2223 20.0001H8.88897V17.7779H22.2223V20.0001Z" fill="black"/>
<path d="M12.2888 35.0115V34.9449L12.6444 33.4004H4.44439V4.44488H26.6666V15.8338L28.8888 13.7338V3.33377C28.8888 3.03908 28.7718 2.75647 28.5634 2.54809C28.355 2.33972 28.0724 2.22266 27.7777 2.22266H3.33328C3.03859 2.22266 2.75598 2.33972 2.5476 2.54809C2.33923 2.75647 2.22217 3.03908 2.22217 3.33377V34.4449C2.22217 34.7396 2.33923 35.0222 2.5476 35.2306C2.75598 35.4389 3.03859 35.556 3.33328 35.556H12.2222C12.2312 35.3731 12.2534 35.1912 12.2888 35.0115Z" fill="black"/>
<path d="M24.4445 21.2998L23.5779 22.1776C23.7929 22.1333 23.99 22.0262 24.1442 21.87C24.2985 21.7138 24.403 21.5154 24.4445 21.2998Z" fill="black"/>
<path d="M6.66675 29.9332C6.66675 30.2279 6.78381 30.5105 6.99219 30.7189C7.20056 30.9273 7.48317 31.0443 7.77786 31.0443H13.1556L13.489 29.5999L13.6334 28.9888V28.9332H8.88897V26.6666H15.9334L18.1556 24.4443H7.77786C7.48317 24.4443 7.20056 24.5614 6.99219 24.7698C6.78381 24.9781 6.66675 25.2608 6.66675 25.5554V29.9332Z" fill="black"/>
<path d="M37.2112 18.5221L33.4667 14.7776C33.3005 14.611 33.1031 14.4788 32.8858 14.3886C32.6684 14.2984 32.4354 14.252 32.2001 14.252C31.9647 14.252 31.7317 14.2984 31.5144 14.3886C31.297 14.4788 31.0996 14.611 30.9334 14.7776L15.7001 30.0999L14.4445 35.4443C14.3975 35.6749 14.3964 35.9124 14.4414 36.1434C14.4863 36.3744 14.5764 36.5942 14.7065 36.7903C14.8365 36.9864 15.004 37.155 15.1993 37.2863C15.3946 37.4175 15.6138 37.509 15.8445 37.5554C15.959 37.5666 16.0744 37.5666 16.1889 37.5554C16.3252 37.5767 16.4638 37.5767 16.6001 37.5554L21.989 36.3665L37.2112 21.111C37.3775 20.9457 37.5094 20.7493 37.5995 20.5328C37.6896 20.3164 37.7359 20.0843 37.7359 19.8499C37.7359 19.6154 37.6896 19.3833 37.5995 19.1669C37.5094 18.9505 37.3775 18.754 37.2112 18.5888V18.5221ZM20.8556 34.3443L16.7889 35.2443L17.7778 31.211L29.2001 19.6665L32.3334 22.7999L20.8556 34.3443ZM33.5889 21.5443L30.4556 18.411L32.2223 16.6665L35.3778 19.8221L33.5889 21.5443Z" fill="#2368C4"/>
</g>
<defs>
<clipPath id="clip0_476_426">
<rect width="40" height="40" fill="white"/>
</clipPath>
</defs>
</svg>
