<svg width="40" height="40" viewBox="0 0 40 40" fill="none" xmlns="http://www.w3.org/2000/svg">
<path d="M4.07129 38.5118C4.08166 37.5168 4.34412 36.5407 4.83415 35.6747C5.35069 34.7742 6.09413 34.0247 6.99042 33.5008C7.88672 32.977 8.9046 32.6971 9.94272 32.689C10.9803 32.6976 11.9976 32.9777 12.8934 33.5015C13.7891 34.0254 14.5321 34.7746 15.0484 35.6747C15.5399 36.5404 15.7999 37.5175 15.8113 38.5118M24.1999 38.5118C24.2102 37.5168 24.4727 36.5407 24.9627 35.6747C25.479 34.7746 26.222 34.0254 27.1178 33.5015C28.0135 32.9777 29.0308 32.6976 30.0684 32.689C31.6156 32.6926 33.0992 33.3054 34.198 34.3946C35.2968 35.4838 35.9226 36.9619 35.9399 38.509M14.3084 19.1947C14.317 18.2318 14.5713 17.2861 15.0456 16.4461C15.5451 15.5716 16.2658 14.8439 17.1354 14.3359C18.0049 13.8279 18.9928 13.5575 19.9999 13.5518C22.0284 13.5547 23.9513 14.6775 24.9513 16.4461C25.4256 17.2861 25.6799 18.2318 25.6913 19.1947M9.94272 30.0947C10.8077 30.0947 11.6373 29.7511 12.2489 29.1394C12.8605 28.5278 13.2041 27.6982 13.2041 26.8333C13.2041 25.9683 12.8605 25.1387 12.2489 24.5271C11.6373 23.9154 10.8077 23.5718 9.94272 23.5718C9.07773 23.5718 8.24818 23.9154 7.63654 24.5271C7.0249 25.1387 6.68129 25.9683 6.68129 26.8333C6.68129 27.6982 7.0249 28.5278 7.63654 29.1394C8.24818 29.7511 9.07773 30.0947 9.94272 30.0947ZM30.0713 30.0947C30.9363 30.0947 31.7658 29.7511 32.3775 29.1394C32.9891 28.5278 33.3327 27.6982 33.3327 26.8333C33.3327 25.9683 32.9891 25.1387 32.3775 24.5271C31.7658 23.9154 30.9363 23.5718 30.0713 23.5718C29.2063 23.5718 28.3767 23.9154 27.7651 24.5271C27.1535 25.1387 26.8099 25.9683 26.8099 26.8333C26.8099 27.6982 27.1535 28.5278 27.7651 29.1394C28.3767 29.7511 29.2063 30.0947 30.0713 30.0947ZM19.997 11.5633C20.804 11.5633 21.578 11.2427 22.1486 10.672C22.7193 10.1014 23.0399 9.32741 23.0399 8.5204C23.0399 7.71338 22.7193 6.93942 22.1486 6.36877C21.578 5.79812 20.804 5.47754 19.997 5.47754C19.19 5.47754 18.416 5.79812 17.8454 6.36877C17.2747 6.93942 16.9541 7.71338 16.9541 8.5204C16.9541 9.32741 17.2747 10.1014 17.8454 10.672C18.416 11.2427 19.19 11.5633 19.997 11.5633Z" stroke="black" stroke-width="2" stroke-linecap="round" stroke-linejoin="round"/>
<path d="M33.6623 1.55762H6.33658C5.79298 1.55913 5.27206 1.77574 4.88767 2.16013C4.50328 2.54452 4.28666 3.06544 4.28516 3.60905V17.1433C4.28516 18.2776 5.20516 19.1948 6.33658 19.1948H33.6623C34.2059 19.1933 34.7268 18.9766 35.1112 18.5922C35.4956 18.2079 35.7122 17.6869 35.7137 17.1433V3.60905C35.7122 3.06544 35.4956 2.54452 35.1112 2.16013C34.7268 1.77574 34.2059 1.55913 33.6623 1.55762Z" stroke="#2368C4" stroke-width="2" stroke-linecap="round" stroke-linejoin="round"/>
</svg>
