<svg width="40" height="40" viewBox="0 0 40 40" fill="none" xmlns="http://www.w3.org/2000/svg">
<path d="M33.3333 6.66634H28.3333V4.99967C28.3333 4.55765 28.1577 4.13372 27.8452 3.82116C27.5326 3.5086 27.1087 3.33301 26.6667 3.33301C26.2246 3.33301 25.8007 3.5086 25.4882 3.82116C25.1756 4.13372 25 4.55765 25 4.99967V6.66634H21.6667V4.99967C21.6667 4.55765 21.4911 4.13372 21.1785 3.82116C20.8659 3.5086 20.442 3.33301 20 3.33301C19.558 3.33301 19.134 3.5086 18.8215 3.82116C18.5089 4.13372 18.3333 4.55765 18.3333 4.99967V6.66634H15V4.99967C15 4.55765 14.8244 4.13372 14.5118 3.82116C14.1993 3.5086 13.7754 3.33301 13.3333 3.33301C12.8913 3.33301 12.4674 3.5086 12.1548 3.82116C11.8423 4.13372 11.6667 4.55765 11.6667 4.99967V6.66634H6.66667C6.22464 6.66634 5.80072 6.84194 5.48816 7.1545C5.17559 7.46706 5 7.89098 5 8.33301V31.6663C5 32.9924 5.52678 34.2642 6.46447 35.2019C7.40215 36.1396 8.67392 36.6663 10 36.6663H30C31.3261 36.6663 32.5979 36.1396 33.5355 35.2019C34.4732 34.2642 35 32.9924 35 31.6663V8.33301C35 7.89098 34.8244 7.46706 34.5118 7.1545C34.1993 6.84194 33.7754 6.66634 33.3333 6.66634ZM31.6667 31.6663C31.6667 32.1084 31.4911 32.5323 31.1785 32.8449C30.866 33.1574 30.442 33.333 30 33.333H10C9.55797 33.333 9.13405 33.1574 8.82149 32.8449C8.50893 32.5323 8.33333 32.1084 8.33333 31.6663V9.99967H11.6667V11.6663C11.6667 12.1084 11.8423 12.5323 12.1548 12.8449C12.4674 13.1574 12.8913 13.333 13.3333 13.333C13.7754 13.333 14.1993 13.1574 14.5118 12.8449C14.8244 12.5323 15 12.1084 15 11.6663V9.99967H18.3333V11.6663C18.3333 12.1084 18.5089 12.5323 18.8215 12.8449C19.134 13.1574 19.558 13.333 20 13.333C20.442 13.333 20.8659 13.1574 21.1785 12.8449C21.4911 12.5323 21.6667 12.1084 21.6667 11.6663V9.99967H25V11.6663C25 12.1084 25.1756 12.5323 25.4882 12.8449C25.8007 13.1574 26.2246 13.333 26.6667 13.333C27.1087 13.333 27.5326 13.1574 27.8452 12.8449C28.1577 12.5323 28.3333 12.1084 28.3333 11.6663V9.99967H31.6667V31.6663Z" fill="black"/>
<path d="M28 18L16 18" stroke="#2368C4" stroke-width="2" stroke-linecap="round"/>
<path d="M28 23L13 23" stroke="#2368C4" stroke-width="2" stroke-linecap="round"/>
<path d="M28 27L10 27" stroke="#2368C4" stroke-width="2" stroke-linecap="round"/>
</svg>
