<svg width="44" height="44" viewBox="0 0 44 44" fill="none" xmlns="http://www.w3.org/2000/svg">
<circle cx="22" cy="22" r="22" fill="#C42323"/>
<path d="M36.3333 7.66634H31.3333V5.99967C31.3333 5.55765 31.1577 5.13372 30.8452 4.82116C30.5326 4.5086 30.1087 4.33301 29.6667 4.33301C29.2246 4.33301 28.8007 4.5086 28.4882 4.82116C28.1756 5.13372 28 5.55765 28 5.99967V7.66634H24.6667V5.99967C24.6667 5.55765 24.4911 5.13372 24.1785 4.82116C23.8659 4.5086 23.442 4.33301 23 4.33301C22.558 4.33301 22.134 4.5086 21.8215 4.82116C21.5089 5.13372 21.3333 5.55765 21.3333 5.99967V7.66634H18V5.99967C18 5.55765 17.8244 5.13372 17.5118 4.82116C17.1993 4.5086 16.7754 4.33301 16.3333 4.33301C15.8913 4.33301 15.4674 4.5086 15.1548 4.82116C14.8423 5.13372 14.6667 5.55765 14.6667 5.99967V7.66634H9.66667C9.22464 7.66634 8.80072 7.84194 8.48816 8.1545C8.17559 8.46706 8 8.89098 8 9.33301V32.6663C8 33.9924 8.52678 35.2642 9.46447 36.2019C10.4021 37.1396 11.6739 37.6663 13 37.6663H33C34.3261 37.6663 35.5979 37.1396 36.5355 36.2019C37.4732 35.2642 38 33.9924 38 32.6663V9.33301C38 8.89098 37.8244 8.46706 37.5118 8.1545C37.1993 7.84194 36.7754 7.66634 36.3333 7.66634ZM34.6667 32.6663C34.6667 33.1084 34.4911 33.5323 34.1785 33.8449C33.866 34.1574 33.442 34.333 33 34.333H13C12.558 34.333 12.134 34.1574 11.8215 33.8449C11.5089 33.5323 11.3333 33.1084 11.3333 32.6663V10.9997H14.6667V12.6663C14.6667 13.1084 14.8423 13.5323 15.1548 13.8449C15.4674 14.1574 15.8913 14.333 16.3333 14.333C16.7754 14.333 17.1993 14.1574 17.5118 13.8449C17.8244 13.5323 18 13.1084 18 12.6663V10.9997H21.3333V12.6663C21.3333 13.1084 21.5089 13.5323 21.8215 13.8449C22.134 14.1574 22.558 14.333 23 14.333C23.442 14.333 23.8659 14.1574 24.1785 13.8449C24.4911 13.5323 24.6667 13.1084 24.6667 12.6663V10.9997H28V12.6663C28 13.1084 28.1756 13.5323 28.4882 13.8449C28.8007 14.1574 29.2246 14.333 29.6667 14.333C30.1087 14.333 30.5326 14.1574 30.8452 13.8449C31.1577 13.5323 31.3333 13.1084 31.3333 12.6663V10.9997H34.6667V32.6663Z" fill="white"/>
<path d="M31 19L19 19" stroke="white" stroke-width="2" stroke-linecap="round"/>
<path d="M31 24L16 24" stroke="white" stroke-width="2" stroke-linecap="round"/>
<path d="M31 28L13 28" stroke="white" stroke-width="2" stroke-linecap="round"/>
</svg>
