<svg width="21" height="23" viewBox="0 0 21 23" fill="none" xmlns="http://www.w3.org/2000/svg">
<path d="M17.5012 7.99998C18.1117 8.00012 18.7099 8.17225 19.2272 8.49664C19.7444 8.82103 20.1599 9.28457 20.4258 9.83415C20.6918 10.3837 20.7976 10.9971 20.7311 11.6041C20.6646 12.211 20.4284 12.7869 20.0497 13.2658C19.671 13.7448 19.1651 14.1073 18.5898 14.312C18.0146 14.5166 17.3933 14.5551 16.7972 14.423C16.2011 14.2909 15.6543 13.9935 15.2194 13.565C14.7845 13.1364 14.4791 12.5941 14.3382 12H11.3382C11.2625 12.485 11.0779 12.9466 10.7984 13.3502C10.5189 13.7538 10.1516 14.0888 9.72414 14.3302C9.29668 14.5716 8.8201 14.7131 8.33016 14.7441C7.84022 14.775 7.34963 14.6946 6.89517 14.509L5.34017 17.26C5.9501 17.7722 6.35067 18.4906 6.46584 19.2788C6.58102 20.0669 6.40276 20.8699 5.96492 21.5352C5.52709 22.2006 4.86016 22.682 4.09078 22.8881C3.3214 23.0941 2.50314 23.0105 1.79136 22.653C1.07959 22.2955 0.523877 21.6891 0.229735 20.9489C-0.0644072 20.2087 -0.0764929 19.3863 0.195773 18.6378C0.468039 17.8892 1.0057 17.2668 1.70666 16.8885C2.40762 16.5103 3.22307 16.4026 3.99817 16.586L5.67017 13.629C5.15718 13.0384 4.87515 12.2822 4.87617 11.5C4.87617 10.593 5.24717 9.77298 5.84617 9.18398L4.24317 6.34598C3.75573 6.50154 3.23847 6.53993 2.73341 6.45802C2.22834 6.37611 1.74972 6.17621 1.33643 5.87457C0.923138 5.57293 0.586827 5.17805 0.354818 4.72202C0.122809 4.26598 0.00164627 3.76165 0.00117227 3.24998C0.00117497 2.7142 0.133637 2.18673 0.38677 1.71452C0.639902 1.24231 1.00585 0.840001 1.45205 0.543406C1.89825 0.24681 2.41085 0.0651273 2.94424 0.0145271C3.47762 -0.0360731 4.01524 0.0459791 4.50925 0.253381C5.00326 0.460783 5.43833 0.7871 5.77575 1.20329C6.11316 1.61948 6.34244 2.11263 6.44319 2.63886C6.54394 3.16508 6.51304 3.70805 6.35322 4.21944C6.1934 4.73083 5.90963 5.19477 5.52717 5.56998L7.13017 8.40598C7.95009 8.14186 8.84134 8.21406 9.60806 8.6067C10.3748 8.99934 10.9543 9.68032 11.2192 10.5H14.3382C14.507 9.78807 14.9112 9.15395 15.4852 8.70025C16.0592 8.24655 16.7695 7.99982 17.5012 7.99998ZM8.12617 9.74998C7.89291 9.74434 7.66087 9.7854 7.44371 9.87076C7.22654 9.95611 7.02864 10.084 6.86164 10.247C6.69465 10.4099 6.56192 10.6047 6.47128 10.8197C6.38064 11.0347 6.33391 11.2656 6.33385 11.499C6.33378 11.7323 6.38037 11.9633 6.47089 12.1784C6.56141 12.3934 6.69402 12.5882 6.86093 12.7513C7.02783 12.9143 7.22566 13.0423 7.44277 13.1278C7.65989 13.2133 7.8919 13.2545 8.12517 13.249C8.58193 13.2382 9.01636 13.0492 9.33563 12.7224C9.65491 12.3956 9.83371 11.9569 9.83385 11.5C9.83398 11.0431 9.65542 10.6043 9.33633 10.2773C9.01724 9.95028 8.58292 9.76103 8.12617 9.74998ZM3.25117 1.49998C2.78704 1.49998 2.34192 1.68436 2.01374 2.01255C1.68555 2.34074 1.50117 2.78586 1.50117 3.24998C1.50117 3.71411 1.68555 4.15923 2.01374 4.48742C2.34192 4.81561 2.78704 4.99998 3.25117 4.99998C3.7153 4.99998 4.16042 4.81561 4.48861 4.48742C4.8168 4.15923 5.00117 3.71411 5.00117 3.24998C5.00117 2.78586 4.8168 2.34074 4.48861 2.01255C4.16042 1.68436 3.7153 1.49998 3.25117 1.49998ZM15.7512 11.25C15.7512 11.7141 15.9355 12.1592 16.2637 12.4874C16.5919 12.8156 17.037 13 17.5012 13C17.9653 13 18.4104 12.8156 18.7386 12.4874C19.0668 12.1592 19.2512 11.7141 19.2512 11.25C19.2512 10.7859 19.0668 10.3407 18.7386 10.0125C18.4104 9.68436 17.9653 9.49998 17.5012 9.49998C17.037 9.49998 16.5919 9.68436 16.2637 10.0125C15.9355 10.3407 15.7512 10.7859 15.7512 11.25ZM1.50117 19.75C1.5013 20.2142 1.68586 20.6594 2.01424 20.9876C2.34261 21.3158 2.78791 21.5001 3.25217 21.5C3.71643 21.4999 4.16163 21.3153 4.48982 20.9869C4.818 20.6585 5.0023 20.2132 5.00217 19.749C5.00211 19.5191 4.95676 19.2915 4.86873 19.0791C4.7807 18.8668 4.6517 18.6738 4.48911 18.5113C4.32651 18.3488 4.1335 18.22 3.9211 18.132C3.70869 18.0441 3.48105 17.9989 3.25117 17.999C3.02129 17.9991 2.79368 18.0444 2.58132 18.1324C2.36897 18.2205 2.17603 18.3495 2.01353 18.512C1.85103 18.6746 1.72214 18.8677 1.63423 19.0801C1.54632 19.2925 1.50111 19.5201 1.50117 19.75Z" fill="#2368C4"/>
</svg>
