<svg width="12" height="15" viewBox="0 0 12 15" fill="none" xmlns="http://www.w3.org/2000/svg">
<path d="M10 1.78979H2C1.45 1.78979 1 2.23979 1 2.78979V12.7898C1 13.3398 1.45 13.7898 2 13.7898H10C10.55 13.7898 11 13.3398 11 12.7898V2.78979C11 2.23979 10.55 1.78979 10 1.78979ZM4 11.7898C4 12.0648 3.775 12.2898 3.5 12.2898H2.5C2.225 12.2898 2 12.0648 2 11.7898V11.5398C2 11.2648 2.225 11.0398 2.5 11.0398H3.5C3.775 11.0398 4 11.2648 4 11.5398V11.7898ZM4 9.78979C4 10.0648 3.775 10.2898 3.5 10.2898H2.5C2.225 10.2898 2 10.0648 2 9.78979V9.53979C2 9.26479 2.225 9.03979 2.5 9.03979H3.5C3.775 9.03979 4 9.26479 4 9.53979V9.78979ZM4 7.78979C4 8.0648 3.775 8.28979 3.5 8.28979H2.5C2.225 8.28979 2 8.0648 2 7.78979V7.53979C2 7.26479 2.225 7.03979 2.5 7.03979H3.5C3.775 7.03979 4 7.26479 4 7.53979V7.78979ZM7 11.7898C7 12.0648 6.775 12.2898 6.5 12.2898H5.5C5.225 12.2898 5 12.0648 5 11.7898V11.5398C5 11.2648 5.225 11.0398 5.5 11.0398H6.5C6.775 11.0398 7 11.2648 7 11.5398V11.7898ZM7 9.78979C7 10.0648 6.775 10.2898 6.5 10.2898H5.5C5.225 10.2898 5 10.0648 5 9.78979V9.53979C5 9.26479 5.225 9.03979 5.5 9.03979H6.5C6.775 9.03979 7 9.26479 7 9.53979V9.78979ZM7 7.78979C7 8.0648 6.775 8.28979 6.5 8.28979H5.5C5.225 8.28979 5 8.0648 5 7.78979V7.53979C5 7.26479 5.225 7.03979 5.5 7.03979H6.5C6.775 7.03979 7 7.26479 7 7.53979V7.78979ZM10 11.7898C10 12.0648 9.775 12.2898 9.5 12.2898H8.5C8.225 12.2898 8 12.0648 8 11.7898V11.5398C8 11.2648 8.225 11.0398 8.5 11.0398H9.5C9.775 11.0398 10 11.2648 10 11.5398V11.7898ZM10 9.78979C10 10.0648 9.775 10.2898 9.5 10.2898H8.5C8.225 10.2898 8 10.0648 8 9.78979V9.53979C8 9.26479 8.225 9.03979 8.5 9.03979H9.5C9.775 9.03979 10 9.26479 10 9.53979V9.78979ZM10 7.78979C10 8.0648 9.775 8.28979 9.5 8.28979H8.5C8.225 8.28979 8 8.0648 8 7.78979V7.53979C8 7.26479 8.225 7.03979 8.5 7.03979H9.5C9.775 7.03979 10 7.26479 10 7.53979V7.78979ZM10 5.53979C10 5.8148 9.775 6.03979 9.5 6.03979H2.5C2.225 6.03979 2 5.8148 2 5.53979V3.53979C2 3.26479 2.225 3.03979 2.5 3.03979H9.5C9.775 3.03979 10 3.26479 10 3.53979V5.53979Z" fill="white"/>
</svg>
