<svg width="17" height="18" viewBox="0 0 17 18" fill="none" xmlns="http://www.w3.org/2000/svg">
<path d="M9.5 8.28979V5.28979H5.5V12.2898H12.5V8.28979H9.5ZM6.5 6.28979H8.5V8.28979H6.5V6.28979ZM8.5 11.2898H6.5V9.28979H8.5V11.2898ZM11.5 11.2898H9.5V9.28979H11.5V11.2898Z" fill="white"/>
<path d="M14 14.7898H4C3.73478 14.7898 3.48043 14.6844 3.29289 14.4969C3.10536 14.3094 3 14.055 3 13.7898V3.78979C3 3.52458 3.10536 3.27022 3.29289 3.08269C3.48043 2.89515 3.73478 2.78979 4 2.78979H9V3.78979H4V13.7898H14V8.78979H15V13.7898C15 14.055 14.8946 14.3094 14.7071 14.4969C14.5196 14.6844 14.2652 14.7898 14 14.7898Z" fill="white"/>
</svg>
