<svg width="17" height="18" viewBox="0 0 17 18" fill="none" xmlns="http://www.w3.org/2000/svg">
<path d="M15.0835 12.4287C15.2909 12.3119 15.3617 12.053 15.2421 11.8504C15.1224 11.6481 14.8575 11.5786 14.65 11.6955L8.98981 14.8871L3.35031 11.7074C3.14321 11.5905 2.87814 11.6597 2.75826 11.8623C2.63866 12.0649 2.70975 12.3237 2.91697 12.4405L8.75651 15.7331C8.80725 15.7618 8.86317 15.7801 8.92103 15.787C8.97889 15.7939 9.03755 15.7892 9.0936 15.7733C9.14646 15.7653 9.19741 15.7477 9.244 15.7214L15.0835 12.4287Z" fill="white"/>
<path d="M8.75438 5.11625C8.80806 5.08613 8.86716 5.06691 8.92828 5.0597C8.98941 5.05249 9.05136 5.05744 9.11057 5.07425C9.16563 5.08276 9.21872 5.1011 9.2673 5.1284L15.4407 8.59247C15.6112 8.68818 15.6952 8.87428 15.6655 9.05294C15.6864 9.20831 15.6264 9.37133 15.445 9.47371L9.27135 12.9549C9.22218 12.9825 9.16838 13.001 9.11259 13.0094C9.0533 13.0262 8.99127 13.0312 8.93008 13.0239C8.86888 13.0166 8.80973 12.9973 8.75603 12.9671L2.58267 9.48623C2.40275 9.38484 2.34232 9.22357 2.36173 9.06951C2.31754 8.88248 2.40111 8.68129 2.58059 8.5805L8.75438 5.11625ZM8.99993 6.0093L3.61184 9.03287L9.00294 12.0727L14.391 9.03451L8.99993 6.0093Z" fill="white"/>
<path d="M9.10174 1.80848C9.15958 1.81753 9.21534 1.83682 9.2664 1.86546L15.7515 5.50443C15.9167 5.59707 16.0045 5.77032 15.9929 5.94379C16.0267 6.13268 15.9392 6.33032 15.7592 6.4316L9.27406 10.0886C9.2224 10.1177 9.16585 10.1371 9.10721 10.1459C9.04494 10.1635 8.97979 10.1687 8.91551 10.1611C8.85124 10.1534 8.78911 10.1332 8.73271 10.1014L2.24757 6.44478C2.07832 6.34952 1.99082 6.16894 2.00903 5.99077C1.9702 5.79854 2.05825 5.59499 2.24211 5.49174L8.72751 1.85277C8.78389 1.82109 8.84598 1.80086 8.9102 1.79326C8.97443 1.78565 9.03952 1.79083 9.10174 1.80848Z" fill="white"/>
</svg>
