<svg width="17" height="18" viewBox="0 0 17 18" fill="none" xmlns="http://www.w3.org/2000/svg">
<path d="M6.60067 8.52873L3.15345 12.5856C3.04421 12.7144 2.90945 12.819 2.75769 12.893C2.60593 12.9669 2.44047 13.0086 2.27179 13.0153C2.1031 13.022 1.93486 12.9936 1.77771 12.932C1.62056 12.8703 1.47791 12.7767 1.35879 12.657C1.2392 12.5374 1.14567 12.3944 1.08409 12.2368C1.02251 12.0793 0.99421 11.9107 1.00098 11.7417C1.00776 11.5726 1.04945 11.4069 1.12344 11.2548C1.19743 11.1026 1.30211 10.9675 1.43088 10.8579L5.47726 7.40302M12.2002 7.43662L8.7341 10.9111M6.56707 1.78986L3.10095 5.265M6.13381 2.2246L3.53492 4.83026C3.53492 4.83026 4.83471 6.56783 6.13451 7.87066C7.435 9.17349 9.16807 10.477 9.16807 10.477L11.7677 7.87066C11.7677 7.87066 10.4679 6.13379 9.16807 4.83026C7.86827 3.52813 6.13381 2.2246 6.13381 2.2246Z" stroke="white" stroke-width="1.5" stroke-linecap="round" stroke-linejoin="round"/>
</svg>
