<svg width="17" height="18" viewBox="0 0 17 18" fill="none" xmlns="http://www.w3.org/2000/svg">
<path fill-rule="evenodd" clip-rule="evenodd" d="M8.5 4.1252C7.39651 4.1248 6.32256 4.46741 5.43894 5.10174C4.55531 5.73607 3.90953 6.628 3.59829 7.644C3.28704 8.66 3.32706 9.74542 3.71236 10.7378C4.09766 11.7301 4.80751 12.576 5.73564 13.1488L6.46921 10.8577C6.09691 10.4776 5.84864 10.0012 5.755 9.48729C5.66136 8.97339 5.72644 8.44443 5.94222 7.96559C6.15801 7.48676 6.51507 7.07897 6.96939 6.7925C7.42372 6.50603 7.95545 6.35339 8.49907 6.35339C9.04269 6.35339 9.57442 6.50603 10.0287 6.7925C10.4831 7.07897 10.8401 7.48676 11.0559 7.96559C11.2717 8.44443 11.3368 8.97339 11.2431 9.48729C11.1495 10.0012 10.9012 10.4776 10.5289 10.8577L11.2644 13.1479C12.1921 12.575 12.9015 11.7291 13.2865 10.7369C13.6715 9.74477 13.7114 8.65962 13.4002 7.64387C13.089 6.62813 12.4435 5.7364 11.5601 5.10211C10.6768 4.46783 9.60322 4.1251 8.5 4.1252ZM2 9.02644C2.00024 7.90317 2.31652 6.80082 2.91545 5.83576C3.51437 4.87069 4.37371 4.07874 5.40274 3.5435C6.43177 3.00827 7.5923 2.74962 8.7618 2.79486C9.9313 2.8401 11.0664 3.18756 12.0472 3.80054C13.028 4.41352 13.8181 5.26929 14.3341 6.27749C14.8502 7.28568 15.073 8.40889 14.979 9.52853C14.8851 10.6482 14.4778 11.7227 13.8003 12.6386C13.1228 13.5545 12.2001 14.2779 11.1297 14.7324C11.0398 14.7705 10.9424 14.79 10.8441 14.7894C10.7458 14.7889 10.6487 14.7684 10.5592 14.7292C10.4697 14.6901 10.3899 14.6332 10.325 14.5623C10.2601 14.4914 10.2115 14.4082 10.1826 14.318L9.06828 10.8417C9.02557 10.7089 9.02703 10.5667 9.07247 10.4348C9.1179 10.3028 9.20505 10.1878 9.32178 10.1056C9.55901 9.93924 9.73535 9.70514 9.82557 9.43679C9.91579 9.16844 9.91527 8.87959 9.82409 8.61154C9.73292 8.34349 9.55575 8.10997 9.31793 7.94439C9.08011 7.77881 8.79382 7.68964 8.5 7.68964C8.20618 7.68964 7.91989 7.77881 7.68207 7.94439C7.44425 8.10997 7.26708 8.34349 7.1759 8.61154C7.08473 8.87959 7.08421 9.16844 7.17443 9.43679C7.26465 9.70514 7.44098 9.93924 7.67821 10.1056C7.79511 10.1877 7.88245 10.3027 7.92805 10.4346C7.97365 10.5665 7.97526 10.7088 7.93264 10.8417L6.81836 14.318C6.78941 14.4083 6.74084 14.4917 6.67586 14.5626C6.61088 14.6336 6.53096 14.6905 6.44137 14.7297C6.35179 14.7688 6.25457 14.7893 6.15613 14.7898C6.05769 14.7902 5.96027 14.7707 5.87029 14.7324C4.7185 14.2434 3.73956 13.4438 3.05247 12.4308C2.36538 11.4178 1.99974 10.2351 2 9.02644Z" fill="white"/>
</svg>
