<svg width="17" height="18" viewBox="0 0 17 18" fill="none" xmlns="http://www.w3.org/2000/svg">
<path d="M7.73768 14.6231C7.39479 14.6316 7.05173 14.616 6.71102 14.5765C5.91982 14.5025 5.14437 14.3092 4.41102 14.0031C3.92935 13.7984 3.48016 13.5244 3.07768 13.1898C2.73024 12.8999 2.44652 12.5413 2.24434 12.1365C2.06204 11.7568 1.97944 11.3369 2.00434 10.9165C2.03914 10.4549 2.15658 10.0032 2.35106 9.58314C2.59538 9.06193 2.90449 8.57362 3.27106 8.1298C3.82501 7.44458 4.46854 6.83692 5.18437 6.32314C5.59681 6.02276 6.04462 5.77423 6.51771 5.58314C6.75131 5.48692 6.9951 5.41759 7.24437 5.37648C7.46419 5.33022 7.69123 5.33022 7.91106 5.37648C8.08434 5.4172 8.24105 5.50989 8.3602 5.64215C8.47934 5.7744 8.55524 5.9399 8.57771 6.11648C8.6244 6.34972 8.6244 6.5899 8.57771 6.82314C8.57771 6.94314 8.52437 7.05648 8.49106 7.16979C8.48468 7.20507 8.48468 7.24121 8.49106 7.27648C8.49058 7.29812 8.49763 7.31925 8.511 7.33627C8.52437 7.35329 8.54323 7.36514 8.56437 7.3698C8.61052 7.3797 8.65824 7.3797 8.70437 7.3698C8.7664 7.35349 8.82668 7.33117 8.88437 7.30314C9.21971 7.16729 9.56522 7.05807 9.91771 6.97648C10.1831 6.92095 10.4533 6.89191 10.7244 6.8898C10.952 6.88987 11.1777 6.93051 11.3911 7.00979C11.5216 7.05756 11.6394 7.13472 11.7353 7.23529C11.8313 7.33587 11.9028 7.45716 11.9444 7.58979C11.9942 7.75151 12.0079 7.92221 11.9844 8.0898C11.956 8.28123 11.9068 8.46901 11.8377 8.64979C11.8153 8.69153 11.7995 8.73652 11.7911 8.78314C11.7851 8.8183 11.791 8.85445 11.8079 8.88586C11.8248 8.91727 11.8517 8.94212 11.8844 8.95648L11.9977 9.00314C12.2852 9.08525 12.5592 9.20877 12.8111 9.36979C13.022 9.53047 13.2007 9.72951 13.3377 9.95648C13.5528 10.2657 13.6498 10.6418 13.6111 11.0165C13.5735 11.4071 13.4407 11.7824 13.2244 12.1098C12.9755 12.5017 12.6622 12.8488 12.2977 13.1365C11.804 13.5237 11.2559 13.836 10.6711 14.0631C10.1921 14.2495 9.69653 14.3901 9.19106 14.4831C8.71152 14.5714 8.22525 14.6182 7.73768 14.6231ZM7.03106 13.7898C7.31874 13.789 7.60605 13.769 7.89106 13.7298C8.33393 13.6637 8.76783 13.5474 9.18437 13.3831C9.64956 13.2053 10.0804 12.9482 10.4577 12.6231C10.7378 12.3864 10.9649 12.0934 11.1243 11.7631C11.2943 11.3986 11.3343 10.9869 11.2377 10.5965C11.1365 10.2476 10.9403 9.93368 10.671 9.68979C10.3806 9.406 10.039 9.1798 9.66434 9.02314C9.09718 8.77778 8.48869 8.64205 7.87102 8.62314C7.46897 8.61623 7.06717 8.64748 6.67102 8.71648C6.21177 8.79761 5.76405 8.93416 5.33768 9.12314C4.92014 9.30858 4.53696 9.56329 4.20434 9.87648C3.96051 10.1026 3.76345 10.3744 3.62434 10.6765C3.52561 10.8978 3.47459 11.1375 3.47459 11.3798C3.47459 11.6222 3.52561 11.8618 3.62434 12.0831C3.77145 12.4153 4.00093 12.7044 4.29102 12.9231C4.59829 13.1657 4.94272 13.3571 5.31102 13.4898C5.86291 13.6877 6.44476 13.7892 7.03106 13.7898ZM13.4177 7.94314C13.4767 7.76928 13.506 7.58673 13.5043 7.40314C13.5079 7.17065 13.4651 6.93979 13.3786 6.72397C13.2921 6.50816 13.1635 6.31171 13.0003 6.14606C12.8372 5.98041 12.6427 5.84887 12.4282 5.7591C12.2137 5.66932 11.9835 5.62311 11.751 5.62314C11.649 5.61328 11.5463 5.61328 11.4443 5.62314C11.3356 5.64259 11.239 5.70444 11.1759 5.79509C11.1128 5.88573 11.0882 5.99774 11.1077 6.10648C11.1271 6.21522 11.189 6.31178 11.2796 6.37491C11.3703 6.43805 11.4823 6.46259 11.591 6.44314C11.7246 6.42301 11.8609 6.43189 11.9907 6.46918C12.1204 6.50647 12.2407 6.57129 12.3432 6.65922C12.4457 6.74716 12.528 6.85615 12.5846 6.97876C12.6411 7.10138 12.6706 7.23475 12.671 7.3698C12.6723 7.46735 12.6565 7.56438 12.6243 7.65648C12.6079 7.70857 12.6019 7.7634 12.6067 7.81781C12.6116 7.87222 12.6272 7.92512 12.6526 7.97348C12.678 8.02183 12.7127 8.06466 12.7548 8.09951C12.7969 8.13435 12.8454 8.16051 12.8977 8.17648C12.9393 8.18638 12.9827 8.18638 13.0243 8.17648C13.1094 8.17788 13.1928 8.15303 13.2632 8.1053C13.3335 8.05758 13.3875 7.98931 13.4177 7.90979V7.94314ZM15.1843 8.45648C15.2888 8.1038 15.3405 7.73761 15.3377 7.3698C15.3359 6.41971 14.9572 5.50915 14.2848 4.83797C13.6124 4.16678 12.7011 3.78981 11.751 3.78979C11.5114 3.79075 11.2725 3.81532 11.0377 3.86314C10.973 3.8751 10.9113 3.89987 10.8563 3.93601C10.8013 3.97215 10.754 4.01892 10.7174 4.07358C10.6807 4.12824 10.6554 4.18969 10.6428 4.2543C10.6303 4.31891 10.6308 4.38539 10.6443 4.4498C10.6717 4.5802 10.7492 4.6946 10.8603 4.76822C10.9713 4.84184 11.1069 4.86876 11.2377 4.84314C11.4066 4.80854 11.5786 4.79067 11.751 4.78979C12.4359 4.78979 13.0928 5.0614 13.5777 5.54505C14.0626 6.02871 14.3359 6.68493 14.3377 7.3698C14.3375 7.62732 14.2993 7.88341 14.2243 8.1298C14.2048 8.19283 14.198 8.2591 14.2042 8.32479C14.2104 8.39048 14.2295 8.45429 14.2605 8.51254C14.2915 8.5708 14.3337 8.62235 14.3847 8.66422C14.4357 8.70608 14.4945 8.73744 14.5577 8.75648C14.6063 8.76298 14.6557 8.76298 14.7043 8.75648C14.809 8.75726 14.9113 8.72563 14.9972 8.66595C15.0832 8.60627 15.1485 8.52145 15.1843 8.42314V8.45648Z" fill="white"/>
</svg>
