<svg width="17" height="18" viewBox="0 0 17 18" fill="none" xmlns="http://www.w3.org/2000/svg">
<path d="M14.3197 11.0219L10.4518 15.0723C10.2356 15.2997 9.97872 15.4802 9.69579 15.6033C9.41286 15.7264 9.10949 15.7898 8.8031 15.7898C8.49671 15.7898 8.19334 15.7264 7.9104 15.6033C7.62747 15.4802 7.37055 15.2997 7.1544 15.0723L5.43317 13.2612C6.33305 13.1109 7.15228 12.6296 7.74373 11.9037C8.33518 11.1778 8.66009 10.2548 8.66009 9.30052C8.66009 8.34627 8.33518 7.42328 7.74373 6.69734C7.15228 5.9714 6.33305 5.49009 5.43317 5.33984L7.16266 3.527C7.48822 3.18455 7.90367 2.95122 8.3562 2.85668C8.80872 2.76213 9.27787 2.81065 9.70399 2.99606C9.98696 3.11912 10.2439 3.29956 10.46 3.527L14.3197 7.57916C14.7552 8.03594 14.9999 8.65504 14.9999 9.30052C14.9999 9.946 14.7552 10.5651 14.3197 11.0219ZM5.38034 13.206L5.43317 13.2612C4.88611 13.3526 4.32659 13.3186 3.79329 13.1615C3.26 13.0045 2.76558 12.7282 2.34415 12.3517C1.92271 11.9752 1.58429 11.5074 1.35223 10.9806C1.12018 10.4539 1 9.88066 1 9.30055C1 8.72043 1.12018 8.14722 1.35223 7.62045C1.58429 7.09369 1.92271 6.62591 2.34415 6.24939C2.76558 5.87287 3.26 5.59657 3.79329 5.43955C4.32659 5.28254 4.88606 5.24854 5.43312 5.3399L5.38034 5.39511C4.39166 6.43113 3.83629 7.83587 3.83629 9.30055C3.83629 10.7652 4.39166 12.17 5.38034 13.206Z" fill="white"/>
</svg>
